<svg viewBox="0 0 330 200" xmlns="http://www.w3.org/2000/svg"><g><g><g><g><g><line x1="30" y1="178" x2="25" y2="178" style="visibility: inherit;" fill="rgb(0, 0, 0)" stroke="rgb(204, 204, 204)" stroke-width="1px"></line><line x1="30" y1="155.75" x2="25" y2="155.75" style="visibility: inherit;" fill="rgb(0, 0, 0)" stroke="rgb(204, 204, 204)" stroke-width="1px"></line><line x1="30" y1="133.5" x2="25" y2="133.5" style="visibility: inherit;" fill="rgb(0, 0, 0)" stroke="rgb(204, 204, 204)" stroke-width="1px"></line><line x1="30" y1="111.25" x2="25" y2="111.25" style="visibility: inherit;" fill="rgb(0, 0, 0)" stroke="rgb(204, 204, 204)" stroke-width="1px"></line><line x1="30" y1="89" x2="25" y2="89" style="visibility: inherit;" fill="rgb(0, 0, 0)" stroke="rgb(204, 204, 204)" stroke-width="1px"></line><line x1="30" y1="66.75" x2="25" y2="66.75" style="visibility: inherit;" fill="rgb(0, 0, 0)" stroke="rgb(204, 204, 204)" stroke-width="1px"></line><line x1="30" y1="44.5" x2="25" y2="44.5" style="visibility: inherit;" fill="rgb(0, 0, 0)" stroke="rgb(204, 204, 204)" stroke-width="1px"></line><line x1="30" y1="22.25" x2="25" y2="22.25" style="visibility: inherit;" fill="rgb(0, 0, 0)" stroke="rgb(204, 204, 204)" stroke-width="1px"></line><line x1="30" y1="0" x2="25" y2="0" style="visibility: inherit;" fill="rgb(0, 0, 0)" stroke="rgb(204, 204, 204)" stroke-width="1px"></line></g><g transform="translate(20, 0)"><text x="0" y="178" dx="0em" dy="0.3em" style="text-anchor: end; visibility: hidden; font-family: &quot;Helvetica Neue&quot;, sans-serif; font-size: 12px; font-weight: 200;" fill="rgb(50, 49, 63)" stroke="none" stroke-width="1px">-1</text><text x="0" y="155.75" dx="0em" dy="0.3em" style="text-anchor: end; visibility: inherit; font-family: &quot;Helvetica Neue&quot;, sans-serif; font-size: 12px; font-weight: 200;" fill="rgb(50, 49, 63)" stroke="none" stroke-width="1px">0</text><text x="0" y="133.5" dx="0em" dy="0.3em" style="text-anchor: end; visibility: hidden; font-family: &quot;Helvetica Neue&quot;, sans-serif; font-size: 12px; font-weight: 200;" fill="rgb(50, 49, 63)" stroke="none" stroke-width="1px">1</text><text x="0" y="111.25" dx="0em" dy="0.3em" style="text-anchor: end; visibility: inherit; font-family: &quot;Helvetica Neue&quot;, sans-serif; font-size: 12px; font-weight: 200;" fill="rgb(50, 49, 63)" stroke="none" stroke-width="1px">2</text><text x="0" y="89" dx="0em" dy="0.3em" style="text-anchor: end; visibility: hidden; font-family: &quot;Helvetica Neue&quot;, sans-serif; font-size: 12px; font-weight: 200;" fill="rgb(50, 49, 63)" stroke="none" stroke-width="1px">3</text><text x="0" y="66.75" dx="0em" dy="0.3em" style="text-anchor: end; visibility: inherit; font-family: &quot;Helvetica Neue&quot;, sans-serif; font-size: 12px; font-weight: 200;" fill="rgb(50, 49, 63)" stroke="none" stroke-width="1px">4</text><text x="0" y="44.5" dx="0em" dy="0.3em" style="text-anchor: end; visibility: hidden; font-family: &quot;Helvetica Neue&quot;, sans-serif; font-size: 12px; font-weight: 200;" fill="rgb(50, 49, 63)" stroke="none" stroke-width="1px">5</text><text x="0" y="22.25" dx="0em" dy="0.3em" style="text-anchor: end; visibility: inherit; font-family: &quot;Helvetica Neue&quot;, sans-serif; font-size: 12px; font-weight: 200;" fill="rgb(50, 49, 63)" stroke="none" stroke-width="1px">6</text><text x="0" y="0" dx="0em" dy="0.3em" style="text-anchor: end; visibility: hidden; font-family: &quot;Helvetica Neue&quot;, sans-serif; font-size: 12px; font-weight: 200;" fill="rgb(50, 49, 63)" stroke="none" stroke-width="1px">7</text></g><line x1="30" y1="0" x2="30" y2="178" fill="rgb(0, 0, 0)" stroke="rgb(204, 204, 204)" stroke-width="1px"></line></g></g><g transform="translate(30, 0)" clip-path="url(#clip_0)"><clipPath id="clip_0"><rect width="300" height="178"></rect></clipPath><g><g><g><line x1="0" y1="0" x2="0" y2="178" fill="rgb(0, 0, 0)" stroke="rgb(60, 60, 60)" stroke-width="1px" opacity="0.25"></line><line x1="42.857142857142854" y1="0" x2="42.857142857142854" y2="178" fill="rgb(0, 0, 0)" stroke="rgb(60, 60, 60)" stroke-width="1px" opacity="0.25"></line><line x1="85.71428571428571" y1="0" x2="85.71428571428571" y2="178" fill="rgb(0, 0, 0)" stroke="rgb(60, 60, 60)" stroke-width="1px" opacity="0.25"></line><line x1="128.57142857142856" y1="0" x2="128.57142857142856" y2="178" fill="rgb(0, 0, 0)" stroke="rgb(60, 60, 60)" stroke-width="1px" opacity="0.25"></line><line x1="171.42857142857142" y1="0" x2="171.42857142857142" y2="178" fill="rgb(0, 0, 0)" stroke="rgb(60, 60, 60)" stroke-width="1px" opacity="0.25"></line><line x1="214.28571428571428" y1="0" x2="214.28571428571428" y2="178" fill="rgb(0, 0, 0)" stroke="rgb(60, 60, 60)" stroke-width="1px" opacity="0.25"></line><line x1="257.1428571428571" y1="0" x2="257.1428571428571" y2="178" fill="rgb(0, 0, 0)" stroke="rgb(60, 60, 60)" stroke-width="1px" opacity="0.25"></line><line x1="300" y1="0" x2="300" y2="178" fill="rgb(0, 0, 0)" stroke="rgb(60, 60, 60)" stroke-width="1px" opacity="0.25"></line></g><g><line x1="0" y1="178" x2="300" y2="178" fill="rgb(0, 0, 0)" stroke="rgb(60, 60, 60)" stroke-width="1px" opacity="0.25"></line><line x1="0" y1="155.75" x2="300" y2="155.75" fill="rgb(0, 0, 0)" stroke="rgb(60, 60, 60)" stroke-width="1px" opacity="0.25"></line><line x1="0" y1="133.5" x2="300" y2="133.5" fill="rgb(0, 0, 0)" stroke="rgb(60, 60, 60)" stroke-width="1px" opacity="0.25"></line><line x1="0" y1="111.25" x2="300" y2="111.25" fill="rgb(0, 0, 0)" stroke="rgb(60, 60, 60)" stroke-width="1px" opacity="0.25"></line><line x1="0" y1="89" x2="300" y2="89" fill="rgb(0, 0, 0)" stroke="rgb(60, 60, 60)" stroke-width="1px" opacity="0.25"></line><line x1="0" y1="66.75" x2="300" y2="66.75" fill="rgb(0, 0, 0)" stroke="rgb(60, 60, 60)" stroke-width="1px" opacity="0.25"></line><line x1="0" y1="44.5" x2="300" y2="44.5" fill="rgb(0, 0, 0)" stroke="rgb(60, 60, 60)" stroke-width="1px" opacity="0.25"></line><line x1="0" y1="22.25" x2="300" y2="22.25" fill="rgb(0, 0, 0)" stroke="rgb(60, 60, 60)" stroke-width="1px" opacity="0.25"></line><line x1="0" y1="0" x2="300" y2="0" fill="rgb(0, 0, 0)" stroke="rgb(60, 60, 60)" stroke-width="1px" opacity="0.25"></line></g></g></g><g><g><line x1="0" y1="155.75" x2="300" y2="155.75" fill="rgb(0, 0, 0)" stroke="rgb(153, 153, 153)" stroke-width="1.5px"></line></g></g><g><g><line x1="42.857142857142854" y1="0" x2="42.857142857142854" y2="178" fill="rgb(0, 0, 0)" stroke="rgb(153, 153, 153)" stroke-width="1.5px"></line></g></g><g><g><g><g><g><path style="fill: none;" stroke="rgb(255, 112, 67)" stroke-width="2px" d="M43.714285714285715,83.52146989107132L44.57142857142857,52.949409283697605L45.42857142857143,36.73485303290036L46.285714285714285,43.30560716570301L47.14285714285714,56.77037362962196L48,80.19565295822574L48.85714285714286,101.03807129565175L49.71428571428571,116.36664407367836L50.57142857142857,126.73864887252824L51.42857142857143,132.60468793779123L52.285714285714285,136.63873274825227L53.14285714285714,139.1425115849519L54,140.61523950738837L54.857142857142854,141.7636376516839L55.714285714285715,142.47267356229932L56.57142857142858,142.72508487364018L57.42857142857142,143.22424363184973L58.285714285714285,143.86964417115297L59.142857142857146,143.33458113952554L60,144.31661510524822L60.857142857142854,143.78297743828585L61.714285714285715,145.0140671532162L62.57142857142857,145.25448258248502L63.42857142857143,147.02908388840928L64.28571428571428,148.2268575989197L65.14285714285714,148.53922806994194L66,149.8420759620204L66.85714285714286,149.12088393280766L67.71428571428571,149.00643749556036L68.57142857142857,150.18808434664268L69.42857142857143,149.7994931257447L70.28571428571429,148.02646874483014L71.14285714285715,147.66994660043315L72,147.52950233977137L72.85714285714286,148.18401249139777L73.71428571428572,148.82061294311816L74.57142857142857,148.18671470246534L75.42857142857143,149.67069063059267L76.28571428571428,147.9098370749569L77.14285714285714,148.32402769554287L78,149.6791104913412L78.85714285714285,150.55111388550392L79.71428571428572,152.0153097801335L80.57142857142857,151.64814593147398L81.42857142857142,151.21926063593435L82.28571428571429,151.53744654088936L83.14285714285714,147.97392799977868L84.00000000000001,149.00266235487632L84.85714285714286,148.4042872096039L85.71428571428571,149.64792475730812L86.57142857142858,149.65172809440278L87.42857142857143,149.89367997395098L88.28571428571428,150.75980786530587L89.14285714285714,150.85794940768736L90,150.66571839260482L90.85714285714286,148.86192293231076L91.71428571428571,150.6180643037823L92.57142857142857,150.9248380330722L93.42857142857143,151.14385913416868L94.28571428571428,151.65089568409402L95.14285714285714,152.0605904335563L96,149.08766428379917L96.85714285714285,149.94368121027173L97.71428571428572,150.09168256669773L98.57142857142857,149.3946189096542L99.42857142857142,149.2700416571481L100.28571428571429,149.64272713819642L101.14285714285714,150.08587295657097L102.00000000000001,148.64118451384127L102.85714285714286,146.62330386345042L103.71428571428571,144.9498079556492L104.57142857142857,146.99052422870798L105.42857142857143,148.45325058626892L106.28571428571428,149.74521036254026L107.14285714285714,149.60572221461925L108,149.5342303966522L108.85714285714286,150.10504903376338L109.71428571428571,150.76044131803656L110.57142857142857,151.9859097375759L111.42857142857143,151.1082006111317L112.28571428571428,150.7080678799494L113.14285714285715,148.61623809389732L114,150.15767365486897L114.85714285714285,150.81866110737013L115.71428571428572,151.76176818534665L116.57142857142857,151.90680636063178L117.42857142857142,150.68469097372866L118.28571428571429,151.81807264555678L119.14285714285714,150.976368915255L120,150.93873137159056L120.85714285714286,151.506693270343L121.71428571428571,151.481563612245L122.57142857142857,152.14487888033537L123.42857142857143,152.87422690981833L124.28571428571429,152.88613605764036L125.14285714285714,152.98846156905012L126,151.91774723535724L126.85714285714286,149.33422561649053L127.71428571428571,150.88937467881183L128.57142857142856,151.31329831360662L129.42857142857144,150.79705898987584L130.28571428571428,151.61007304803925L131.14285714285714,152.44044789711475L132,151.83458000743292L132.85714285714286,152.45988298698606L133.71428571428572,153.2759001381358L134.57142857142858,153.3730979324675L135.42857142857142,152.3916660241065L136.28571428571428,149.91978764186965L137.14285714285714,151.27672666997114L138,152.09801756778597L138.85714285714286,151.9375940557673L139.7142857142857,152.15014639773096L140.57142857142858,152.27163058089093L141.42857142857142,152.5222628418617L142.2857142857143,152.80920467251613L143.14285714285714,153.43227844446346L144,153.66315102433828L144.85714285714286,153.28062307003538L145.71428571428572,153.5098574081862L146.57142857142856,153.00809227197195L147.42857142857144,153.78563768725886L148.28571428571428,153.62033261842308L149.14285714285714,152.7481739460634L150,151.77680462981502L150.85714285714286,151.7872380920365L151.7142857142857,152.5530712557205L152.57142857142856,153.39368399991804L153.42857142857144,153.5983797543598L154.28571428571428,153.92419185911731L155.14285714285714,153.22424140974948L156,153.8143656963412L156.85714285714286,154.31524418193425L157.7142857142857,153.51995693384603L158.57142857142858,153.41656432219742L159.42857142857144,151.32600001197096L160.28571428571428,151.5681275320115L161.14285714285714,151.6747258539237L162,151.1888763493441L162.85714285714283,150.75755815721408L163.71428571428572,150.53964387933524L164.57142857142858,151.13438145852157L165.42857142857142,150.8490317853455L166.28571428571428,152.15589384613418L167.14285714285714,149.21499559210528L168.00000000000003,151.23671029911512L168.85714285714286,150.9121158877377L169.71428571428572,152.30028724055674L170.57142857142858,153.1239122651886L171.42857142857142,145.61660012619922L172.28571428571428,147.78226809362906L173.14285714285717,149.15791548735103L174,148.00367793408753L174.85714285714286,147.99249120335412L175.71428571428572,148.10024536717316L176.57142857142856,149.68453062217463L177.42857142857142,150.1990611010255L178.28571428571428,150.5404600890554L179.14285714285717,150.89478037012083L180,148.73919376881398L180.85714285714286,150.07911032528565L181.71428571428572,150.0821660583668L182.57142857142856,150.3615560874613L183.42857142857142,151.41682609440517L184.2857142857143,151.9721009717681L185.14285714285714,152.7809801443695L186,151.95145428146594L186.85714285714286,152.1956946311335L187.7142857142857,152.04616646366955L188.57142857142856,153.08639450831797L189.42857142857144,153.7419933212613L190.28571428571428,154.21221756460162L191.14285714285714,150.61459494842225L192,151.13934836961707L192.85714285714286,151.5876400853865L193.7142857142857,151.2215534916921L194.57142857142858,150.81506812998077L195.42857142857144,151.52368228243841L196.28571428571428,151.70753627185258L197.14285714285714,152.00174400010246L198,150.81619865178192L198.85714285714283,151.55252888935283L199.71428571428572,152.11468303583547L200.57142857142858,153.1020781826674L201.42857142857142,153.027452990812L202.28571428571428,151.74799250686286L203.14285714285714,152.39781513586115L204.00000000000003,153.01915725707693L204.85714285714286,152.68828984284212L205.71428571428572,152.67126217892056L206.57142857142858,152.2245819801705L207.42857142857142,152.50940517393454L208.28571428571428,151.15212293152632L209.14285714285714,152.23931036105526L210,152.5033360747145L210.85714285714286,152.70842404679337L211.71428571428572,153.39238909790444L212.57142857142856,153.33825095092968L213.42857142857142,153.3224764345331L214.28571428571428,152.63284015674847L215.14285714285717,153.04406880300914L216,153.4916378704409L216.85714285714286,153.0886586336911L217.71428571428572,151.78198258749367L218.57142857142856,152.2559089492066L219.42857142857142,152.92556987361928L220.2857142857143,152.81707726512445L221.14285714285714,152.82983620222862L222,153.48304730210575L222.85714285714286,153.57578182401582L223.7142857142857,153.7651302259107L224.57142857142856,153.98424252292153L225.42857142857144,154.42864152238897L226.2857142857143,151.97387351063568L227.14285714285714,152.56757072563576L228,152.5654004377461L228.85714285714286,153.30006639062384L229.7142857142857,153.8678394557477L230.57142857142858,153.7039703183735L231.42857142857144,153.47067024653344L232.28571428571428,152.24288417604677L233.14285714285714,153.18573946107693L234,153.11228773578566L234.85714285714283,152.72292182197904L235.71428571428572,152.13531141341173L236.57142857142858,152.43813616252208L237.42857142857144,153.25078452134886L238.28571428571428,153.74545542935883L239.14285714285714,152.88717381680223L240,153.02579194172748L240.85714285714286,153.7208848438533L241.71428571428572,153.68324069406816L242.57142857142858,153.79749624193448L243.42857142857142,154.14869758716665L244.28571428571428,153.88769316885737L245.14285714285714,154.4535638944886L245.99999999999997,153.44535827228916L246.85714285714286,153.46636309230024L247.71428571428572,151.8261241913062L248.57142857142858,153.15400830359587L249.42857142857142,153.71654783756333L250.28571428571428,153.56503646117926L251.14285714285717,153.51223570133732L252,153.61125245258503L252.85714285714286,153.6124484095889L253.71428571428572,154.05770261497304L254.57142857142856,154.16544619224075L255.42857142857142,154.43950170365932L256.2857142857143,154.78652411770352L257.1428571428571,154.3448847141655L258,153.53172373812149L258.8571428571429,154.14757792377918L259.7142857142857,154.5415470505473L260.57142857142856,154.32780460072857L261.42857142857144,154.45313080208481L262.2857142857143,154.77280183170427L263.1428571428571,154.61803250333185L264,153.15350385052272L264.8571428571429,153.57770843903606L265.7142857142857,154.10762570522954L266.57142857142856,154.4290832096948L267.42857142857144,154.44555168015444L268.2857142857143,154.3246161969762L269.14285714285717,154.49031280881232L270,154.54721030946712L270.85714285714283,154.39598268259252L271.7142857142857,153.93782909505774L272.57142857142856,154.45370317704655L273.42857142857144,154.77714971110777L274.2857142857143,154.9189287325326L275.14285714285717,154.33475869301458L276,154.55467801409065L276.85714285714283,154.63450268688558L277.7142857142857,154.75323276315785L278.57142857142856,154.84528046455773L279.4285714285714,155.13671396633936L280.2857142857143,155.21629420644612L281.14285714285717,155.0903894832824L282,155.15936972535218L282.85714285714283,154.6400949289594" fill="none"></path></g></g></g></g><g opacity="0.2"><g><g><g><path style="fill: none;" stroke="rgb(255, 112, 67)" stroke-width="2px" d="M43.714285714285715,83.52146989107132L44.57142857142857,34.60617291927338L45.42857142857143,21.16887903213501L46.285714285714285,51.032814025878906L47.14285714285714,74.34997272491455L48,112.60124737024307L48.85714285714286,130.84306299686432L49.71428571428571,138.7158503383398L50.57142857142857,142.0353412926197L51.42857142857143,141.31507229804993L52.285714285714285,142.65321147441864L53.14285714285714,142.88455438613892L54,142.81952267885208L54.857142857142854,143.48398503661156L55.714285714285715,143.5353939831257L56.57142857142858,143.10352382063866L57.42857142857142,143.97277054190636L58.285714285714285,144.83758111298084L59.142857142857146,142.53206810355186L60,145.78957629203796L60.857142857142854,142.9825502038002L61.714285714285715,146.8606612160802L62.57142857142857,145.615100979805L63.42857142857143,149.69096482545137L64.28571428571428,150.0235096514225L65.14285714285714,149.00778244435787L66,151.79634446650743L66.85714285714286,148.03909699618816L67.71428571428571,148.8347679451108L68.57142857142857,151.9605539701879L69.42857142857143,149.21660642325878L70.28571428571429,145.3669325262308L71.14285714285715,147.13516342639923L72,147.31883595883846L72.85714285714286,149.16577769070864L73.71428571428572,149.77551360428333L74.57142857142857,147.23586735129356L75.42857142857143,151.89665450900793L76.28571428571428,145.26855675131083L77.14285714285714,148.94531362503767L78,151.71173468232155L78.85714285714285,151.85911897569895L79.71428571428572,154.2116036210209L80.57142857142857,151.09740015864372L81.42857142857142,150.5759326927364L82.28571428571429,152.01472539827228L83.14285714285714,142.62865018844604L84.00000000000001,150.545763887465L84.85714285714286,147.50672449171543L85.71428571428571,151.5133810788393L86.57142857142858,149.65743310004473L87.42857142857143,150.25660779327154L88.28571428571428,152.0589997023344L89.14285714285714,151.00516172125936L90,150.3773718699813L90.85714285714286,146.15622974187136L91.71428571428571,153.25227636098862L92.57142857142857,151.384998627007L93.42857142857143,151.47239078581333L94.28571428571428,152.41145050898194L95.14285714285714,152.67513255774975L96,144.62827505916357L96.85714285714285,151.2277065999806L97.71428571428572,150.31368460133672L98.57142857142857,148.34902342408895L99.42857142857142,149.08317577838898L100.28571428571429,150.20175535976887L101.14285714285714,150.75059168413281L102.00000000000001,146.4741518497467L102.85714285714286,143.5964828878641L103.71428571428571,142.4395640939474L104.57142857142857,150.05159863829613L105.42857142857143,150.64734012261033L106.28571428571428,151.68315002694726L107.14285714285714,149.39648999273777L108,149.42699266970158L108.85714285714286,150.9612769894302L109.71428571428571,151.74352974444628L110.57142857142857,153.82411236688495L111.42857142857143,149.7916369214654L112.28571428571428,150.10786878317595L113.14285714285715,145.47849341481924L114,152.46982699632645L114.85714285714285,151.81014228612185L115.71428571428572,153.17642880231142L116.57142857142857,152.12436362355947L117.42857142857142,148.85151789337397L118.28571428571429,153.51814515329897L119.14285714285714,149.71381331980228L120,150.88227505609393L120.85714285714286,152.35863611847162L121.71428571428571,151.443869125098L122.57142857142857,153.13985178247094L123.42857142857143,153.9682489540428L124.28571428571429,152.9039997793734L125.14285714285714,153.1419498361647L126,150.31167573481798L126.85714285714286,145.45894318819046L127.71428571428571,153.2220982722938L128.57142857142856,151.9491837657988L129.42857142857144,150.0227000042796L130.28571428571428,152.82959413528442L131.14285714285714,153.68601017072797L132,150.9257781729102L132.85714285714286,153.39783745631576L133.71428571428572,154.49992586486042L134.57142857142858,153.51889462396502L135.42857142857142,150.91951816156507L136.28571428571428,146.21197006851435L137.14285714285714,153.3121352121234L138,153.32995391450822L138.85714285714286,151.69695878773928L139.7142857142857,152.46897491067648L140.57142857142858,152.45385685563087L141.42857142857142,152.89821123331785L142.2857142857143,153.2396174184978L143.14285714285714,154.36688910238445L144,154.0094598941505L144.85714285714286,152.70683113858104L145.71428571428572,153.85370891541243L146.57142857142856,152.25544456765056L147.42857142857144,154.95195581018925L148.28571428571428,153.37237501516938L149.14285714285714,151.43993593752384L150,150.31975065544248L150.85714285714286,151.80288828536868L151.7142857142857,153.70182100124657L152.57142857142856,154.65460311621428L153.42857142857144,153.90542338602245L154.28571428571428,154.4129100162536L155.14285714285714,152.17431573569775L156,154.6995521262288L156.85714285714286,155.0665619103238L157.7142857142857,152.3270260617137L158.57142857142858,153.26147540472448L159.42857142857144,148.19015354663134L160.28571428571428,151.93131881207228L161.14285714285714,151.834623336792L162,150.4601020924747L162.85714285714283,150.11058086901903L163.71428571428572,150.21277246251702L164.57142857142858,152.02648782730103L165.42857142857142,150.42100727558136L166.28571428571428,154.11618693731725L167.14285714285714,144.80364821106195L168.00000000000003,154.26928235962987L168.85714285714286,150.4252242706716L169.71428571428572,154.38254426978528L170.57142857142858,154.35934980213642L171.42857142857142,134.35563191771507L172.28571428571428,151.03077004477382L173.14285714285717,151.22138657793403L174,146.27232160419226L174.85714285714286,147.97571110725403L175.71428571428572,148.2618766129017L176.57142857142856,152.06095850467682L177.42857142857142,150.97085681930184L178.28571428571428,151.05255857110023L179.14285714285717,151.42626079171896L180,145.5058138668537L180.85714285714286,152.08898515999317L181.71428571428572,150.08674965798855L182.57142857142856,150.78064113110304L183.42857142857142,152.99973110482097L184.2857142857143,152.80501328781247L185.14285714285714,153.99429890327156L186,150.70716548711061L186.85714285714286,152.56205515563488L187.7142857142857,151.82187421247363L188.57142857142856,154.64673657529056L189.42857142857144,154.72539154067636L190.28571428571428,154.91755392961204L191.14285714285714,145.21816102415323L192,151.9264785014093L192.85714285714286,152.2600776590407L193.7142857142857,150.6724236011505L194.57142857142858,150.2053400874138L195.42857142857144,152.58660351112485L196.28571428571428,151.98331725597382L197.14285714285714,152.44305559247732L198,149.03788062930107L198.85714285714283,152.65702424570918L199.71428571428572,152.95791425555944L200.57142857142858,154.5831709029153L201.42857142857142,152.91551520302892L202.28571428571428,149.8288017809391L203.14285714285714,153.37254907935858L204.00000000000003,153.9511704389006L204.85714285714286,152.1919887214899L205.71428571428572,152.64572068303823L206.57142857142858,151.55456168204546L207.42857142857142,152.93663996458054L208.28571428571428,149.116199567914L209.14285714285714,153.87009150534868L210,152.89937464520335L210.85714285714286,153.01605600491166L211.71428571428572,154.41833667457104L212.57142857142856,153.25704373046756L213.42857142857142,153.29881465993822L214.28571428571428,151.59838574007154L215.14285714285717,153.66091177240014L216,154.1629914715886L216.85714285714286,152.48418977856636L217.71428571428572,149.82196851819754L218.57142857142856,152.966798491776L219.42857142857142,153.9300612602383L220.2857142857143,152.65433835238218L221.14285714285714,152.84897460788488L222,154.46286395192146L222.85714285714286,153.7148836068809L223.7142857142857,154.049152828753L224.57142857142856,154.3129109684378L225.42857142857144,155.09524002159014L226.2857142857143,148.29172149300575L227.14285714285714,153.45811654813588L228,152.5621450059116L228.85714285714286,154.40206531994045L229.7142857142857,154.71949905343354L230.57142857142858,153.4581666123122L231.42857142857144,153.12072013877332L232.28571428571428,150.4012050703168L233.14285714285714,154.60002238862216L234,153.00211014784873L234.85714285714283,152.13887295126915L235.71428571428572,151.2538958005607L236.57142857142858,152.89237328618765L237.42857142857144,154.46975705958903L238.28571428571428,154.4874617913738L239.14285714285714,151.59975139796734L240,153.23371912911534L240.85714285714286,154.763524197042L241.71428571428572,153.6267744693905L242.57142857142858,153.96887956373394L243.42857142857142,154.67549960501492L244.28571428571428,153.4961865413934L245.14285714285714,155.3023699829355L245.99999999999997,151.93304983898997L246.85714285714286,153.49787032231688L247.71428571428572,149.36576583981514L248.57142857142858,155.1458344720304L249.42857142857142,154.56035713851452L250.28571428571428,153.3377693966031L251.14285714285717,153.43303456157446L252,153.75977757945657L252.85714285714286,153.61424234509468L253.71428571428572,154.72558392304927L254.57142857142856,154.3270615581423L255.42857142857142,154.85058497078717L256.2857142857143,155.3070577387698L257.1428571428571,153.68242560885847L258,152.31198227405548L258.8571428571429,155.07135920226574L259.7142857142857,155.13250074069947L260.57142857142856,154.00719092600048L261.42857142857144,154.64112010411918L262.2857142857143,155.25230837613344L263.1428571428571,154.38587851077318L264,150.95671087130904L264.8571428571429,154.21401532180607L265.7142857142857,154.90250160451978L266.57142857142856,154.9112694663927L267.42857142857144,154.47025438584387L268.2857142857143,154.14321297220886L269.14285714285717,154.7388577265665L270,154.6325565604493L270.85714285714283,154.1691412422806L271.7142857142857,153.2505987137556L272.57142857142856,155.22751430002972L273.42857142857144,155.2623195121996L274.2857142857143,155.13159726466984L275.14285714285717,153.45850363373756L276,154.88455699570477L276.85714285714283,154.754239696078L277.7142857142857,154.93132787756622L278.57142857142856,154.9833520166576L279.4285714285714,155.57386421901174L280.2857142857143,155.33566456660628L281.14285714285717,154.9015323985368L282,155.26284008845687L282.85714285714283,153.86118273437023" fill="none"></path></g></g></g></g></g></g><g transform="translate(30, 178)" clip-path="url(#clip_1)"><clipPath id="clip_1"><rect width="300" height="22"></rect></clipPath><g><g><line x1="0" y1="0" x2="0" y2="5" style="visibility: inherit;" fill="rgb(0, 0, 0)" stroke="rgb(204, 204, 204)" stroke-width="1px"></line><line x1="42.857142857142854" y1="0" x2="42.857142857142854" y2="5" style="visibility: inherit;" fill="rgb(0, 0, 0)" stroke="rgb(204, 204, 204)" stroke-width="1px"></line><line x1="85.71428571428571" y1="0" x2="85.71428571428571" y2="5" style="visibility: inherit;" fill="rgb(0, 0, 0)" stroke="rgb(204, 204, 204)" stroke-width="1px"></line><line x1="128.57142857142856" y1="0" x2="128.57142857142856" y2="5" style="visibility: inherit;" fill="rgb(0, 0, 0)" stroke="rgb(204, 204, 204)" stroke-width="1px"></line><line x1="171.42857142857142" y1="0" x2="171.42857142857142" y2="5" style="visibility: inherit;" fill="rgb(0, 0, 0)" stroke="rgb(204, 204, 204)" stroke-width="1px"></line><line x1="214.28571428571428" y1="0" x2="214.28571428571428" y2="5" style="visibility: inherit;" fill="rgb(0, 0, 0)" stroke="rgb(204, 204, 204)" stroke-width="1px"></line><line x1="257.1428571428571" y1="0" x2="257.1428571428571" y2="5" style="visibility: inherit;" fill="rgb(0, 0, 0)" stroke="rgb(204, 204, 204)" stroke-width="1px"></line><line x1="300" y1="0" x2="300" y2="5" style="visibility: inherit;" fill="rgb(0, 0, 0)" stroke="rgb(204, 204, 204)" stroke-width="1px"></line></g><g transform="translate(0, 8)"><text x="0" y="0" dx="0em" dy="0.95em" style="text-anchor: middle; visibility: hidden; font-family: &quot;Helvetica Neue&quot;, sans-serif; font-size: 12px; font-weight: 200;" fill="rgb(50, 49, 63)" stroke="none" stroke-width="1px">-50</text><text x="42.857142857142854" y="0" dx="0em" dy="0.95em" style="text-anchor: middle; visibility: inherit; font-family: &quot;Helvetica Neue&quot;, sans-serif; font-size: 12px; font-weight: 200;" fill="rgb(50, 49, 63)" stroke="none" stroke-width="1px">0</text><text x="85.71428571428571" y="0" dx="0em" dy="0.95em" style="text-anchor: middle; visibility: inherit; font-family: &quot;Helvetica Neue&quot;, sans-serif; font-size: 12px; font-weight: 200;" fill="rgb(50, 49, 63)" stroke="none" stroke-width="1px">50</text><text x="128.57142857142856" y="0" dx="0em" dy="0.95em" style="text-anchor: middle; visibility: inherit; font-family: &quot;Helvetica Neue&quot;, sans-serif; font-size: 12px; font-weight: 200;" fill="rgb(50, 49, 63)" stroke="none" stroke-width="1px">100</text><text x="171.42857142857142" y="0" dx="0em" dy="0.95em" style="text-anchor: middle; visibility: inherit; font-family: &quot;Helvetica Neue&quot;, sans-serif; font-size: 12px; font-weight: 200;" fill="rgb(50, 49, 63)" stroke="none" stroke-width="1px">150</text><text x="214.28571428571428" y="0" dx="0em" dy="0.95em" style="text-anchor: middle; visibility: inherit; font-family: &quot;Helvetica Neue&quot;, sans-serif; font-size: 12px; font-weight: 200;" fill="rgb(50, 49, 63)" stroke="none" stroke-width="1px">200</text><text x="257.1428571428571" y="0" dx="0em" dy="0.95em" style="text-anchor: middle; visibility: inherit; font-family: &quot;Helvetica Neue&quot;, sans-serif; font-size: 12px; font-weight: 200;" fill="rgb(50, 49, 63)" stroke="none" stroke-width="1px">250</text><text x="300" y="0" dx="0em" dy="0.95em" style="text-anchor: middle; visibility: hidden; font-family: &quot;Helvetica Neue&quot;, sans-serif; font-size: 12px; font-weight: 200;" fill="rgb(50, 49, 63)" stroke="none" stroke-width="1px">300</text></g><line x1="0" y1="0" x2="300" y2="0" fill="rgb(0, 0, 0)" stroke="rgb(204, 204, 204)" stroke-width="1px"></line></g></g></g></g></svg>