<svg viewBox="0 0 330 200" xmlns="http://www.w3.org/2000/svg"><g><g><g><g><g><line x1="50" y1="178" x2="45" y2="178" style="visibility: inherit;" fill="rgb(0, 0, 0)" stroke="rgb(204, 204, 204)" stroke-width="1px"></line><line x1="50" y1="165.28571428571428" x2="45" y2="165.28571428571428" style="visibility: inherit;" fill="rgb(0, 0, 0)" stroke="rgb(204, 204, 204)" stroke-width="1px"></line><line x1="50" y1="152.57142857142858" x2="45" y2="152.57142857142858" style="visibility: inherit;" fill="rgb(0, 0, 0)" stroke="rgb(204, 204, 204)" stroke-width="1px"></line><line x1="50" y1="139.85714285714286" x2="45" y2="139.85714285714286" style="visibility: inherit;" fill="rgb(0, 0, 0)" stroke="rgb(204, 204, 204)" stroke-width="1px"></line><line x1="50" y1="127.14285714285715" x2="45" y2="127.14285714285715" style="visibility: inherit;" fill="rgb(0, 0, 0)" stroke="rgb(204, 204, 204)" stroke-width="1px"></line><line x1="50" y1="114.42857142857144" x2="45" y2="114.42857142857144" style="visibility: inherit;" fill="rgb(0, 0, 0)" stroke="rgb(204, 204, 204)" stroke-width="1px"></line><line x1="50" y1="101.71428571428574" x2="45" y2="101.71428571428574" style="visibility: inherit;" fill="rgb(0, 0, 0)" stroke="rgb(204, 204, 204)" stroke-width="1px"></line><line x1="50" y1="89.00000000000001" x2="45" y2="89.00000000000001" style="visibility: inherit;" fill="rgb(0, 0, 0)" stroke="rgb(204, 204, 204)" stroke-width="1px"></line><line x1="50" y1="76.28571428571429" x2="45" y2="76.28571428571429" style="visibility: inherit;" fill="rgb(0, 0, 0)" stroke="rgb(204, 204, 204)" stroke-width="1px"></line><line x1="50" y1="63.5714285714286" x2="45" y2="63.5714285714286" style="visibility: inherit;" fill="rgb(0, 0, 0)" stroke="rgb(204, 204, 204)" stroke-width="1px"></line><line x1="50" y1="50.857142857142875" x2="45" y2="50.857142857142875" style="visibility: inherit;" fill="rgb(0, 0, 0)" stroke="rgb(204, 204, 204)" stroke-width="1px"></line><line x1="50" y1="38.14285714285717" x2="45" y2="38.14285714285717" style="visibility: inherit;" fill="rgb(0, 0, 0)" stroke="rgb(204, 204, 204)" stroke-width="1px"></line><line x1="50" y1="25.428571428571445" x2="45" y2="25.428571428571445" style="visibility: inherit;" fill="rgb(0, 0, 0)" stroke="rgb(204, 204, 204)" stroke-width="1px"></line><line x1="50" y1="12.714285714285722" x2="45" y2="12.714285714285722" style="visibility: inherit;" fill="rgb(0, 0, 0)" stroke="rgb(204, 204, 204)" stroke-width="1px"></line><line x1="50" y1="0" x2="45" y2="0" style="visibility: inherit;" fill="rgb(0, 0, 0)" stroke="rgb(204, 204, 204)" stroke-width="1px"></line></g><g transform="translate(40, 0)"><text x="0" y="178" dx="0em" dy="0.3em" style="text-anchor: end; visibility: hidden; font-family: &quot;Helvetica Neue&quot;, sans-serif; font-size: 12px; font-weight: 200;" fill="rgb(50, 49, 63)" stroke="none" stroke-width="1px">0.4</text><text x="0" y="165.28571428571428" dx="0em" dy="0.3em" style="text-anchor: end; visibility: inherit; font-family: &quot;Helvetica Neue&quot;, sans-serif; font-size: 12px; font-weight: 200;" fill="rgb(50, 49, 63)" stroke="none" stroke-width="1px">0.45</text><text x="0" y="152.57142857142858" dx="0em" dy="0.3em" style="text-anchor: end; visibility: hidden; font-family: &quot;Helvetica Neue&quot;, sans-serif; font-size: 12px; font-weight: 200;" fill="rgb(50, 49, 63)" stroke="none" stroke-width="1px">0.5</text><text x="0" y="139.85714285714286" dx="0em" dy="0.3em" style="text-anchor: end; visibility: inherit; font-family: &quot;Helvetica Neue&quot;, sans-serif; font-size: 12px; font-weight: 200;" fill="rgb(50, 49, 63)" stroke="none" stroke-width="1px">0.55</text><text x="0" y="127.14285714285715" dx="0em" dy="0.3em" style="text-anchor: end; visibility: hidden; font-family: &quot;Helvetica Neue&quot;, sans-serif; font-size: 12px; font-weight: 200;" fill="rgb(50, 49, 63)" stroke="none" stroke-width="1px">0.6</text><text x="0" y="114.42857142857144" dx="0em" dy="0.3em" style="text-anchor: end; visibility: inherit; font-family: &quot;Helvetica Neue&quot;, sans-serif; font-size: 12px; font-weight: 200;" fill="rgb(50, 49, 63)" stroke="none" stroke-width="1px">0.65</text><text x="0" y="101.71428571428574" dx="0em" dy="0.3em" style="text-anchor: end; visibility: hidden; font-family: &quot;Helvetica Neue&quot;, sans-serif; font-size: 12px; font-weight: 200;" fill="rgb(50, 49, 63)" stroke="none" stroke-width="1px">0.7</text><text x="0" y="89.00000000000001" dx="0em" dy="0.3em" style="text-anchor: end; visibility: inherit; font-family: &quot;Helvetica Neue&quot;, sans-serif; font-size: 12px; font-weight: 200;" fill="rgb(50, 49, 63)" stroke="none" stroke-width="1px">0.75</text><text x="0" y="76.28571428571429" dx="0em" dy="0.3em" style="text-anchor: end; visibility: hidden; font-family: &quot;Helvetica Neue&quot;, sans-serif; font-size: 12px; font-weight: 200;" fill="rgb(50, 49, 63)" stroke="none" stroke-width="1px">0.8</text><text x="0" y="63.5714285714286" dx="0em" dy="0.3em" style="text-anchor: end; visibility: inherit; font-family: &quot;Helvetica Neue&quot;, sans-serif; font-size: 12px; font-weight: 200;" fill="rgb(50, 49, 63)" stroke="none" stroke-width="1px">0.85</text><text x="0" y="50.857142857142875" dx="0em" dy="0.3em" style="text-anchor: end; visibility: hidden; font-family: &quot;Helvetica Neue&quot;, sans-serif; font-size: 12px; font-weight: 200;" fill="rgb(50, 49, 63)" stroke="none" stroke-width="1px">0.9</text><text x="0" y="38.14285714285717" dx="0em" dy="0.3em" style="text-anchor: end; visibility: inherit; font-family: &quot;Helvetica Neue&quot;, sans-serif; font-size: 12px; font-weight: 200;" fill="rgb(50, 49, 63)" stroke="none" stroke-width="1px">0.95</text><text x="0" y="25.428571428571445" dx="0em" dy="0.3em" style="text-anchor: end; visibility: hidden; font-family: &quot;Helvetica Neue&quot;, sans-serif; font-size: 12px; font-weight: 200;" fill="rgb(50, 49, 63)" stroke="none" stroke-width="1px">1</text><text x="0" y="12.714285714285722" dx="0em" dy="0.3em" style="text-anchor: end; visibility: inherit; font-family: &quot;Helvetica Neue&quot;, sans-serif; font-size: 12px; font-weight: 200;" fill="rgb(50, 49, 63)" stroke="none" stroke-width="1px">1.05</text><text x="0" y="0" dx="0em" dy="0.3em" style="text-anchor: end; visibility: hidden; font-family: &quot;Helvetica Neue&quot;, sans-serif; font-size: 12px; font-weight: 200;" fill="rgb(50, 49, 63)" stroke="none" stroke-width="1px">1.1</text></g><line x1="50" y1="0" x2="50" y2="178" fill="rgb(0, 0, 0)" stroke="rgb(204, 204, 204)" stroke-width="1px"></line></g></g><g transform="translate(50, 0)" clip-path="url(#clip_0)"><clipPath id="clip_0"><rect width="280" height="178"></rect></clipPath><g><g><g><line x1="0" y1="0" x2="0" y2="178" fill="rgb(0, 0, 0)" stroke="rgb(60, 60, 60)" stroke-width="1px" opacity="0.25"></line><line x1="40" y1="0" x2="40" y2="178" fill="rgb(0, 0, 0)" stroke="rgb(60, 60, 60)" stroke-width="1px" opacity="0.25"></line><line x1="80" y1="0" x2="80" y2="178" fill="rgb(0, 0, 0)" stroke="rgb(60, 60, 60)" stroke-width="1px" opacity="0.25"></line><line x1="120" y1="0" x2="120" y2="178" fill="rgb(0, 0, 0)" stroke="rgb(60, 60, 60)" stroke-width="1px" opacity="0.25"></line><line x1="160" y1="0" x2="160" y2="178" fill="rgb(0, 0, 0)" stroke="rgb(60, 60, 60)" stroke-width="1px" opacity="0.25"></line><line x1="200" y1="0" x2="200" y2="178" fill="rgb(0, 0, 0)" stroke="rgb(60, 60, 60)" stroke-width="1px" opacity="0.25"></line><line x1="240" y1="0" x2="240" y2="178" fill="rgb(0, 0, 0)" stroke="rgb(60, 60, 60)" stroke-width="1px" opacity="0.25"></line><line x1="280" y1="0" x2="280" y2="178" fill="rgb(0, 0, 0)" stroke="rgb(60, 60, 60)" stroke-width="1px" opacity="0.25"></line></g><g><line x1="0" y1="178" x2="280" y2="178" fill="rgb(0, 0, 0)" stroke="rgb(60, 60, 60)" stroke-width="1px" opacity="0.25"></line><line x1="0" y1="165.28571428571428" x2="280" y2="165.28571428571428" fill="rgb(0, 0, 0)" stroke="rgb(60, 60, 60)" stroke-width="1px" opacity="0.25"></line><line x1="0" y1="152.57142857142858" x2="280" y2="152.57142857142858" fill="rgb(0, 0, 0)" stroke="rgb(60, 60, 60)" stroke-width="1px" opacity="0.25"></line><line x1="0" y1="139.85714285714286" x2="280" y2="139.85714285714286" fill="rgb(0, 0, 0)" stroke="rgb(60, 60, 60)" stroke-width="1px" opacity="0.25"></line><line x1="0" y1="127.14285714285715" x2="280" y2="127.14285714285715" fill="rgb(0, 0, 0)" stroke="rgb(60, 60, 60)" stroke-width="1px" opacity="0.25"></line><line x1="0" y1="114.42857142857144" x2="280" y2="114.42857142857144" fill="rgb(0, 0, 0)" stroke="rgb(60, 60, 60)" stroke-width="1px" opacity="0.25"></line><line x1="0" y1="101.71428571428574" x2="280" y2="101.71428571428574" fill="rgb(0, 0, 0)" stroke="rgb(60, 60, 60)" stroke-width="1px" opacity="0.25"></line><line x1="0" y1="89.00000000000001" x2="280" y2="89.00000000000001" fill="rgb(0, 0, 0)" stroke="rgb(60, 60, 60)" stroke-width="1px" opacity="0.25"></line><line x1="0" y1="76.28571428571429" x2="280" y2="76.28571428571429" fill="rgb(0, 0, 0)" stroke="rgb(60, 60, 60)" stroke-width="1px" opacity="0.25"></line><line x1="0" y1="63.5714285714286" x2="280" y2="63.5714285714286" fill="rgb(0, 0, 0)" stroke="rgb(60, 60, 60)" stroke-width="1px" opacity="0.25"></line><line x1="0" y1="50.857142857142875" x2="280" y2="50.857142857142875" fill="rgb(0, 0, 0)" stroke="rgb(60, 60, 60)" stroke-width="1px" opacity="0.25"></line><line x1="0" y1="38.14285714285717" x2="280" y2="38.14285714285717" fill="rgb(0, 0, 0)" stroke="rgb(60, 60, 60)" stroke-width="1px" opacity="0.25"></line><line x1="0" y1="25.428571428571445" x2="280" y2="25.428571428571445" fill="rgb(0, 0, 0)" stroke="rgb(60, 60, 60)" stroke-width="1px" opacity="0.25"></line><line x1="0" y1="12.714285714285722" x2="280" y2="12.714285714285722" fill="rgb(0, 0, 0)" stroke="rgb(60, 60, 60)" stroke-width="1px" opacity="0.25"></line><line x1="0" y1="0" x2="280" y2="0" fill="rgb(0, 0, 0)" stroke="rgb(60, 60, 60)" stroke-width="1px" opacity="0.25"></line></g></g></g><g><g><line x1="0" y1="279.7142857142857" x2="280" y2="279.7142857142857" fill="rgb(0, 0, 0)" stroke="rgb(153, 153, 153)" stroke-width="1.5px"></line></g></g><g><g><line x1="40" y1="0" x2="40" y2="178" fill="rgb(0, 0, 0)" stroke="rgb(153, 153, 153)" stroke-width="1.5px"></line></g></g><g><g><g><g><g><path stroke="rgb(255, 112, 67)" stroke-width="2px" d="M40.8,150.02857385362898L41.6,147.74155512877874L42.400000000000006,148.90840141696762L43.199999999999996,145.91741257655522L44,140.53164544355604L44.800000000000004,140.24864561930562L45.6,140.6107571124089L46.4,141.85594343988342L47.199999999999996,133.34205136207885L48,127.2656328653861L48.800000000000004,119.55998801998555L49.599999999999994,108.83836700743765L50.4,105.4757669074014L51.2,102.44308020978004L52,98.92482536117818L52.800000000000004,98.00606168473539L53.599999999999994,94.40302107378349L54.4,88.68122280847905L55.2,88.80873539254709L56,83.29074698468251L56.8,84.04873986289437L57.6,77.89200959691357L58.4,79.28377896272421L59.2,64.35304140516999L60,55.90321653863005L60.8,56.42763297816323L61.6,49.62226964697402L62.400000000000006,51.641923301748804L63.199999999999996,50.81943017706335L64,44.73164075500674L64.8,47.690403231654074L65.60000000000001,53.53423440139326L66.4,55.51481383939901L67.2,59.24602229497286L68,58.433315523439276L68.8,53.87712387901628L69.60000000000001,57.754837292277614L70.4,49.40145728252898L71.2,59.65899818256635L72,56.646811229056254L72.8,51.78807339572033L73.6,46.32996991654562L74.4,39.49511122477449L75.2,41.497053397395035L76,44.2239315315837L76.8,43.82577463754902L77.6,55.2840303913915L78.4,52.49611772763558L79.2,57.943375464644575L80,48.49743832977066L80.80000000000001,49.441310440493965L81.6,49.499056700719734L82.39999999999999,43.43084707148151L83.2,43.34991789886857L84,45.33565023218563L84.80000000000001,51.0174171266618L85.6,45.86757615773598L86.39999999999999,46.84624518750499L87.2,46.41630471824638L88,41.581195882007904L88.8,39.697272467384806L89.60000000000001,50.77263925198086L90.39999999999999,46.737857382692226L91.2,44.82555314203509L92,50.79817593276748L92.8,48.78746316540389L93.60000000000001,48.08960644854568L94.39999999999999,47.16232147487085L95.2,54.59425980593868L96,64.2879762097961L96.8,70.61277699567049L97.60000000000001,61.184794746705634L98.4,56.80565302883568L99.19999999999999,48.32337581192161L100,53.40544047825931L100.8,55.43753739094204L101.60000000000001,53.09679287098844L102.4,44.572346886533495L103.19999999999999,39.45767929586057L104,43.508878013939494L104.8,43.39674252698728L105.60000000000001,51.46660845706238L106.4,46.64566796218125L107.19999999999999,45.787393502136126L108,41.71242009590188L108.8,40.28457793928115L109.6,46.54787798043532L110.4,40.13442700864172L111.2,41.37207192380862L112,45.16609059691214L112.8,41.84820929632738L113.6,41.89176429021623L114.4,39.883613512309836L115.2,36.64443927132638L116.00000000000001,37.11976593891626L116.8,34.47755978373024L117.6,36.45223875818195L118.4,47.80847713933912L119.2,42.92507027822367L120,41.52073899223416L120.8,45.255290837967436L121.6,41.39315849740066L122.4,36.53302437526099L123.2,39.71980128734009L124,36.54615193634453L124.80000000000001,33.33953666874726L125.6,33.735135052308635L126.39999999999999,39.058209580688526L127.2,48.35491774572321L128,42.235792754934295L128.8,40.0900305911407L129.6,40.83686312974805L130.4,38.74210187246905L131.20000000000002,40.02809983590123L132,39.78255672684068L132.8,38.61808897428452L133.6,34.86798266139132L134.4,33.126489817215315L135.20000000000002,35.13301977206922L136,33.28551208362205L136.79999999999998,37.262722968796794L137.6,32.52905022741891L138.4,34.26598507463149L139.20000000000002,40.393867543845886L140,46.10488079961428L140.8,45.276864726913004L141.6,41.40610889341187L142.4,36.54079461286773L143.20000000000002,35.147318875220975L144,33.29409154551314L144.79999999999998,36.75929970237155L145.6,33.752709098243514L146.4,30.423054030374686L147.2,36.56239002396822L148,36.68598895256102L148.8,43.88015364484335L149.6,43.61950184288574L150.4,44.98882965503475L151.20000000000002,47.84471617920775L152,50.575389980831375L152.8,50.17951048756585L153.6,45.36483217427954L154.39999999999998,46.54459879743095L155.2,41.81943865642316L156,51.02880314092771L156.8,42.31441116137725L157.6,43.69720430256976L158.4,38.424022801922376L159.20000000000002,35.768684845093844L160,50.95834745904955L160.8,48.37499513761321L161.60000000000002,44.28212296430797L162.39999999999998,53.014978606574616L163.2,53.168976493691574L164,51.73566239528198L164.79999999999998,44.26423954466955L165.6,44.86710133254516L166.4,44.21167651815068L167.20000000000002,44.83556351663381L168,55.88990371841359L168.8,49.299645118991975L169.60000000000002,51.44834734470189L170.39999999999998,49.17756601256457L171.2,43.39922504814717L172,39.262377136388636L172.79999999999998,35.25455555865378L173.6,39.461297003579546L174.4,38.933910146531616L175.2,40.65176180654257L176,35.57961541718623L176.8,32.027756640012484L177.6,30.62849949094806L178.4,41.77137279855532L179.20000000000002,40.828526567077006L180,41.27995465266602L180.79999999999998,46.12795605870255L181.6,49.54533390852825L182.4,42.95004245261731L183.2,39.50143852263065L184,38.4494180517585L184.8,47.98964282836519L185.6,42.52519874807942L186.4,38.22939041278809L187.20000000000002,34.34947975461341L187.99999999999997,35.86681979715195L188.79999999999998,44.914371044921495L189.6,40.17146473445325L190.4,37.32572094817229L191.2,38.161135456847205L192,37.645242274932315L192.8,39.36999014002305L193.6,38.87911996575386L194.4,46.721745083438776L195.20000000000002,40.23874727044375L196,41.43466408088983L196.8,39.60935338671399L197.6,37.65829747263683L198.39999999999998,37.343533421762174L199.2,34.611820273437814L200,40.60136866312973L200.8,38.09223424893813L201.6,34.552469826183454L202.4,38.02289761433366L203.20000000000002,45.69944072902675L204,42.16821937559615L204.8,36.99806090217831L205.60000000000002,38.47310431016686L206.39999999999998,38.34098846784016L207.2,35.21029330108459L208,34.85758903171103L208.79999999999998,33.12025363940711L209.6,32.58642334758471L210.4,30.23184139825159L211.20000000000002,41.024813062021366L212,38.50757327782128L212.8,39.37881173555266L213.60000000000002,34.30727443103237L214.39999999999998,31.26435204832015L215.2,34.524314116935926L216,36.480291358105376L216.79999999999998,45.282453981493575L217.6,38.3580307221568L218.4,38.27194431503412L219.2,38.72886947696429L220,44.59731101592536L220.8,43.032660441058965L221.60000000000002,36.499583654336135L222.4,34.61402135654211L223.2,39.076976482312574L224,36.669027996887905L224.79999999999998,33.69854607495333L225.6,32.8713900874246L226.4,32.9456761599551L227.2,31.464534972793672L228,32.61013403473649L228.8,29.737496866982752L229.6,35.13391383881324L230.4,35.320332297908124L231.20000000000002,42.04361776493178L232.00000000000003,36.63801616589964L232.79999999999998,34.69708086348024L233.6,35.058232512708344L234.4,35.2749235022452L235.2,35.91350903952724L236,35.27951847477661L236.8,32.35626941812663L237.6,32.128032814816436L238.4,29.9568070785906L239.20000000000002,28.65407163685512L240,31.9409979202932L240.79999999999998,37.98173336412313L241.6,33.46902740817464L242.4,31.49326195184537L243.2,32.118799278607554L244,30.968408843985145L244.8,28.75246175253193L245.6,30.4743191590195L246.4,36.593155163799L247.20000000000002,33.653022375099994L248,30.871800814760746L248.8,29.20306787855722L249.60000000000002,30.236111891074813L250.39999999999998,31.873080185705163L251.2,31.32954833180358L252,30.494858275902743L252.79999999999998,31.01118612948207L253.6,33.86384362207315L254.4,30.99829356294464L255.20000000000002,29.78753447102747L256,29.06107901587714L256.8,32.18520234770642L257.6,31.008250685444466L258.4,31.82779251876704L259.2,29.776662900960957L260,28.54598513027733L260.8,27.29901964959498L261.6,26.550828235897825L262.40000000000003,26.610484331239434L263.2,27.15484893200434L264,30.5328933538228" style="fill: none;" fill="none"></path></g></g></g></g><g opacity="0.2"><g><g><g><path stroke="rgb(255, 112, 67)" stroke-width="2px" d="M40.8,150.02857385362898L41.6,146.3693438938686L42.400000000000006,150.02857385362898L43.199999999999996,142.4000097002302L44,133.49998787471228L44.800000000000004,139.85715498243061L45.6,141.1285823413304L46.4,143.67143705913L47.199999999999996,120.7857142857143L48,118.2428595679147L48.800000000000004,108.07141038349697L49.599999999999994,92.81428207669941L50.4,100.4428462300982L51.2,97.8999915122986L52,93.65157866477968L52.800000000000004,96.6285641533988L53.599999999999994,88.99998484339034L54.4,80.09997817448208L55.2,88.99998484339034L56,75.01426873888289L56.8,85.18568761008129L57.6,68.65711678777424L58.4,81.37140553338189L59.2,41.957111937659135L60,43.22853929655895L60.8,57.214255401066396L61.6,39.41424206324987L62.400000000000006,54.671400683266796L63.199999999999996,49.5856912476676L64,35.59995998655049L64.8,52.12854596546718L65.60000000000001,62.29997999327526L66.4,58.48568275996618L67.2,64.84283471107484L68,57.214255401066396L68.8,47.042836529868L69.60000000000001,63.571407352175044L70.4,36.87138734545027L71.2,75.04530947549004L72,52.12853080885753L72.8,44.499966655458735L73.6,38.14281470435009L74.4,29.242823192051503L75.2,44.499966655458735L76,48.31424873215812L76.8,43.22853929655895L77.6,72.4714140210833L78.4,48.31424873215812L79.2,66.11426206997463L80,34.328532627650674L80.80000000000001,50.8571186065674L81.6,49.585676091057934L82.39999999999999,34.328532627650674L83.2,43.22852413994926L84,48.31424873215812L84.80000000000001,59.54006746837072L85.6,38.14281470435009L86.39999999999999,48.31424873215812L87.2,45.77139401435855L88,34.328532627650674L88.8,36.87138734545027L89.60000000000001,67.38568942887444L90.39999999999999,40.68568457875935L91.2,41.95709678104947L92,59.75711011886598L92.8,45.77139401435855L93.60000000000001,47.042821373258334L94.39999999999999,45.77139401435855L95.2,65.7421673025404L96,78.82855081558229L96.8,80.09997817448208L97.60000000000001,47.042821373258334L98.4,50.23694045203075L99.19999999999999,35.59995998655049L100,61.02853747776577L100.8,58.48568275996618L101.60000000000001,49.585676091057934L102.4,31.785677909851103L103.19999999999999,31.785677909851103L104,49.585676091057934L104.8,43.22853929655895L105.60000000000001,63.571407352175044L106.4,39.414257219859536L107.19999999999999,44.4999818120684L108,35.59995998655049L108.8,38.14281470435009L109.6,55.94282804216658L110.4,30.51425055095129L111.2,43.22853929655895L112,50.8571186065674L112.8,36.87138734545027L113.6,41.95709678104947L114.4,36.87138734545027L115.2,31.785677909851103L116.00000000000001,37.8327559403011L116.8,30.51425055095129L117.6,39.414257219859536L118.4,64.84283471107484L119.2,35.59995998655049L120,39.41424206324987L120.8,50.8571186065674L121.6,35.59995998655049L122.4,29.242823192051503L123.2,44.499966655458735L124,31.785677909851103L124.80000000000001,28.529613767351435L125.6,34.328532627650674L126.39999999999999,47.042821373258334L127.2,62.29997999327526L128,33.05710526875089L128.8,36.87138734545027L129.6,41.957111937659135L130.4,35.59995998655049L131.20000000000002,41.95709678104947L132,39.41424206324987L132.8,36.87138734545027L133.6,29.242823192051503L134.4,30.51425055095129L135.20000000000002,38.14281470435009L136,30.51425055095129L136.79999999999998,43.22853929655895L137.6,25.42854111535209L138.4,36.87138734545027L139.20000000000002,49.5856912476676L140,54.671400683266796L140.8,44.03484061786108L141.6,35.59997514316015L142.4,29.242823192051503L143.20000000000002,33.05710526875089L144,30.51425055095129L144.79999999999998,41.957111937659135L145.6,29.242823192051503L146.4,25.428571428571445L147.2,45.77139401435855L148,36.87138734545027L148.8,54.671400683266796L149.6,43.22852413994926L150.4,47.042821373258334L151.20000000000002,52.12854596546718L152,54.671400683266796L152.8,49.5856912476676L153.6,38.14281470435009L154.39999999999998,48.31424873215812L155.2,34.731698444911416L156,64.84284986768452L156.8,29.242823192051503L157.6,45.77139401435855L158.4,30.51425055095129L159.20000000000002,31.785677909851103L160,73.7428413799831L160.8,44.499966655458735L161.60000000000002,38.14281470435009L162.39999999999998,66.11426206997463L163.2,53.399973324367L164,49.5856912476676L164.79999999999998,33.05710526875089L165.6,45.77139401435855L166.4,43.22853929655895L167.20000000000002,45.77139401435855L168,72.4714140210833L168.8,39.414257219859536L169.60000000000002,54.671400683266796L170.39999999999998,45.77139401435855L171.2,34.73171360152111L172,33.05710526875089L172.79999999999998,29.242823192051503L173.6,45.77140917096821L174.4,38.14282986095975L175.2,43.22853929655895L176,27.97139583315169L176.8,26.699968474251904L177.6,28.529613767351435L178.4,58.48568275996618L179.20000000000002,39.414257219859536L180,41.95709678104947L180.79999999999998,53.39995816775732L181.6,54.671400683266796L182.4,33.05710526875089L183.2,34.328532627650674L184,36.87138734545027L184.8,62.29997999327526L185.6,34.328532627650674L186.4,31.785677909851103L187.20000000000002,28.529613767351435L187.99999999999997,38.14282986095975L188.79999999999998,58.48569791657586L189.6,33.05710526875089L190.4,33.05710526875089L191.2,39.414257219859536L192,36.871402502059965L192.8,41.957111937659135L193.6,38.14281470435009L194.4,58.48568275996618L195.20000000000002,30.51425055095129L196,43.22853929655895L196.8,36.87138734545027L197.6,34.73171360152111L198.39999999999998,36.87138734545027L199.2,30.51425055095129L200,49.5856912476676L200.8,34.328532627650674L201.6,29.242823192051503L202.4,43.22853929655895L203.20000000000002,57.214255401066396L204,36.87138734545027L204.8,29.242823192051503L205.60000000000002,40.68566942214969L206.39999999999998,38.14281470435009L207.2,30.51425055095129L208,34.328532627650674L208.79999999999998,30.51425055095129L209.6,31.785677909851103L210.4,26.699968474251904L211.20000000000002,57.214270557676045L212,34.73171360152111L212.8,40.68566942214969L213.60000000000002,26.699968474251904L214.39999999999998,26.699968474251904L215.2,39.414257219859536L216,39.414257219859536L216.79999999999998,58.48569791657586L217.6,27.97139583315169L218.4,38.14281470435009L219.2,39.414257219859536L220,53.399973324367L220.8,40.68568457875935L221.60000000000002,26.699968474251904L222.4,31.785677909851103L223.2,45.77140917096821L224,33.05710526875089L224.79999999999998,29.242823192051503L225.6,31.630656106131426L226.4,33.05710526875089L227.2,29.242823192051503L228,34.328532627650674L228.8,25.42854111535209L229.6,43.22853929655895L230.4,35.59995998655049L231.20000000000002,52.12854596546718L232.00000000000003,28.529613767351435L232.79999999999998,31.785677909851103L233.6,35.59995998655049L234.4,35.59995998655049L235.2,36.87138734545027L236,34.328532627650674L236.8,27.97139583315169L237.6,31.785677909851103L238.4,26.699968474251904L239.20000000000002,26.699968474251904L240,36.87138734545027L240.79999999999998,47.042836529868L241.6,26.699968474251904L242.4,28.529613767351435L243.2,33.05710526875089L244,29.242823192051503L244.8,25.42854111535209L245.6,33.05710526875089L246.4,45.77140917096821L247.20000000000002,29.242823192051503L248,26.699968474251904L248.8,26.699968474251904L249.60000000000002,31.785677909851103L250.39999999999998,34.328532627650674L251.2,30.51425055095129L252,29.242823192051503L252.79999999999998,31.785677909851103L253.6,38.14282986095975L254.4,26.699968474251904L255.20000000000002,27.97139583315169L256,27.97139583315169L256.8,36.87138734545027L257.6,29.242823192051503L258.4,33.05710526875089L259.2,26.699968474251904L260,26.699968474251904L260.8,25.428571428571445L261.6,25.42854111535209L262.40000000000003,26.699968474251904L263.2,27.97139583315169L264,35.59995998655049" style="fill: none;" fill="none"></path></g></g></g></g></g></g><g transform="translate(50, 178)" clip-path="url(#clip_1)"><clipPath id="clip_1"><rect width="280" height="22"></rect></clipPath><g><g><line x1="0" y1="0" x2="0" y2="5" style="visibility: inherit;" fill="rgb(0, 0, 0)" stroke="rgb(204, 204, 204)" stroke-width="1px"></line><line x1="40" y1="0" x2="40" y2="5" style="visibility: inherit;" fill="rgb(0, 0, 0)" stroke="rgb(204, 204, 204)" stroke-width="1px"></line><line x1="80" y1="0" x2="80" y2="5" style="visibility: inherit;" fill="rgb(0, 0, 0)" stroke="rgb(204, 204, 204)" stroke-width="1px"></line><line x1="120" y1="0" x2="120" y2="5" style="visibility: inherit;" fill="rgb(0, 0, 0)" stroke="rgb(204, 204, 204)" stroke-width="1px"></line><line x1="160" y1="0" x2="160" y2="5" style="visibility: inherit;" fill="rgb(0, 0, 0)" stroke="rgb(204, 204, 204)" stroke-width="1px"></line><line x1="200" y1="0" x2="200" y2="5" style="visibility: inherit;" fill="rgb(0, 0, 0)" stroke="rgb(204, 204, 204)" stroke-width="1px"></line><line x1="240" y1="0" x2="240" y2="5" style="visibility: inherit;" fill="rgb(0, 0, 0)" stroke="rgb(204, 204, 204)" stroke-width="1px"></line><line x1="280" y1="0" x2="280" y2="5" style="visibility: inherit;" fill="rgb(0, 0, 0)" stroke="rgb(204, 204, 204)" stroke-width="1px"></line></g><g transform="translate(0, 8)"><text x="0" y="0" dx="0em" dy="0.95em" style="text-anchor: middle; visibility: hidden; font-family: &quot;Helvetica Neue&quot;, sans-serif; font-size: 12px; font-weight: 200;" fill="rgb(50, 49, 63)" stroke="none" stroke-width="1px">-50</text><text x="40" y="0" dx="0em" dy="0.95em" style="text-anchor: middle; visibility: inherit; font-family: &quot;Helvetica Neue&quot;, sans-serif; font-size: 12px; font-weight: 200;" fill="rgb(50, 49, 63)" stroke="none" stroke-width="1px">0</text><text x="80" y="0" dx="0em" dy="0.95em" style="text-anchor: middle; visibility: inherit; font-family: &quot;Helvetica Neue&quot;, sans-serif; font-size: 12px; font-weight: 200;" fill="rgb(50, 49, 63)" stroke="none" stroke-width="1px">50</text><text x="120" y="0" dx="0em" dy="0.95em" style="text-anchor: middle; visibility: inherit; font-family: &quot;Helvetica Neue&quot;, sans-serif; font-size: 12px; font-weight: 200;" fill="rgb(50, 49, 63)" stroke="none" stroke-width="1px">100</text><text x="160" y="0" dx="0em" dy="0.95em" style="text-anchor: middle; visibility: inherit; font-family: &quot;Helvetica Neue&quot;, sans-serif; font-size: 12px; font-weight: 200;" fill="rgb(50, 49, 63)" stroke="none" stroke-width="1px">150</text><text x="200" y="0" dx="0em" dy="0.95em" style="text-anchor: middle; visibility: inherit; font-family: &quot;Helvetica Neue&quot;, sans-serif; font-size: 12px; font-weight: 200;" fill="rgb(50, 49, 63)" stroke="none" stroke-width="1px">200</text><text x="240" y="0" dx="0em" dy="0.95em" style="text-anchor: middle; visibility: inherit; font-family: &quot;Helvetica Neue&quot;, sans-serif; font-size: 12px; font-weight: 200;" fill="rgb(50, 49, 63)" stroke="none" stroke-width="1px">250</text><text x="280" y="0" dx="0em" dy="0.95em" style="text-anchor: middle; visibility: hidden; font-family: &quot;Helvetica Neue&quot;, sans-serif; font-size: 12px; font-weight: 200;" fill="rgb(50, 49, 63)" stroke="none" stroke-width="1px">300</text></g><line x1="0" y1="0" x2="280" y2="0" fill="rgb(0, 0, 0)" stroke="rgb(204, 204, 204)" stroke-width="1px"></line></g></g></g></g></svg>