<svg viewBox="-768 -377 1536 754" width="1536" height="754" style="background-color: rgb(255, 255, 255);" xmlns="http://www.w3.org/2000/svg"><path d="M-77.45168216284944,7.8627807265622565L-78.61877572982604,7.699322495735253M-78.61877572982604,-56.82924664057622L-78.61877572982604,7.699322495735253M-78.61877572982604,7.699322495735253L-103.4418916678284,31.330593029541244M-77.45168216284944,-56.665788409749226L-77.45168216284944,7.8627807265622565M-77.45168216284944,7.8627807265622565L-102.2747981008518,31.494051260368245" style="fill:none;stroke:rgb(0,0,0);stroke-width:1;stroke-linecap:round"></path><path d="M-77.45168216284944,7.862780726562258L-78.61877572982604,7.699322495735254L-78.61877572982604,-56.82924664057621z" style="fill:rgb(238,238,238); fill-opacity: 0.4"></path><path d="M-79.82439801839641,-8.12759670024305L-80.99149158537303,-8.291054931070054M-80.99149158537303,-11.782119172300327L-80.99149158537303,-8.291054931070054M-80.99149158537303,-8.291054931070054L-82.3344485665516,-7.012578054244569M-80.4079441714209,-11.70039005552559L-80.4079441714209,-8.209325814295315M-80.4079441714209,-8.209325814295315L-81.75090115259947,-6.930848937469832M-80.4079441714209,-8.209325814295315L-58.908471995225696,-6.4654516633685395M-79.82439801839641,-11.618660941473326L-79.82439801839641,-8.12759670024305M-79.82439801839641,-8.12759670024305L-81.16735499957497,-6.849119823417568" style="fill:none;stroke:rgb(0,0,0);stroke-width:1;stroke-linecap:round"></path><path d="M-79.82439801839641,-8.12759670024305L-80.99149158537303,-8.291054931070054L-80.99149158537303,-11.782119172300327z" style="fill:rgb(153,221,255); fill-opacity: 0.4"></path><path d="M-15.796421184327103,14.15916539092983L-56.24480317847421,8.494134627624673M-56.24480317847421,-47.968362256868424L-56.24480317847421,8.494134627624673M-56.24480317847421,8.494134627624673L-77.96502919731176,29.17149593828806" style="fill:none;stroke:rgb(0,0,0);stroke-width:1;stroke-linecap:round"></path><path d="M-79.82439801839641,-11.618660941473324L-79.82439801839641,-8.12759670024305L-80.99149158537303,-11.782119172300327zM-82.3344485665516,-7.012578054244571L-80.99149158537303,-8.291054931070054L-79.82439801839641,-8.12759670024305z" style="fill:rgb(153,221,255); fill-opacity: 0.4"></path><path d="M-79.82439801839641,-11.618660941473326L-80.99149158537303,-11.782119172300327M-80.99149158537303,-11.782119172300327L-82.3344485665516,-10.503642295474846M-80.4079441714209,-11.70039005552559L-81.75090115259947,-10.421913178700105M-80.4079441714209,-11.70039005552559L-58.908471995225696,-6.4654516633685395" style="fill:none;stroke:rgb(0,0,0);stroke-width:1;stroke-linecap:round"></path><path d="M-80.40794480188472,-11.700390056886826L-80.40794480188472,-8.209325815656552L-81.75090178306328,-6.930848938831069z" style="fill:rgb(255,187,187); fill-opacity: 0.4"></path><path d="M-79.82439801839641,-11.618660941473326L-81.16735499957497,-10.340184064647842" style="fill:none;stroke:rgb(0,0,0);stroke-width:1;stroke-linecap:round"></path><path d="M-81.16735499957497,-6.849119823417568L-79.82439801839641,-8.12759670024305L-79.82439801839641,-11.618660941473324zM-80.99149158537303,-11.782119172300327L-80.99149158537303,-8.291054931070054L-82.3344485665516,-10.503642295474846zM-81.16735499957497,-6.849119823417568L-82.3344485665516,-7.012578054244571L-79.82439801839641,-8.12759670024305zM-80.99149158537303,-8.291054931070054L-82.3344485665516,-7.012578054244571L-82.3344485665516,-10.503642295474846zM-81.16735499957497,-10.340184064647842L-79.82439801839641,-11.618660941473324L-80.99149158537303,-11.782119172300327z" style="fill:rgb(153,221,255); fill-opacity: 0.4"></path><path d="M-82.3344485665516,-10.503642295474846L-82.3344485665516,-7.012578054244569M-82.3344485665516,-7.012578054244569L-81.16735499957497,-6.849119823417568" style="fill:none;stroke:rgb(0,0,0);stroke-width:1;stroke-linecap:round"></path><path d="M-80.40794480188472,-11.700390056886826L-81.75090178306328,-6.930848938831069L-81.75090178306328,-10.421913180061344z" style="fill:rgb(255,187,187); fill-opacity: 0.4"></path><path d="M-81.75090115259947,-6.930848937469832L-81.75090115259947,-10.421913178700105M-81.75090115259947,-6.930848937469832L-58.908471995225696,-6.4654516633685395" style="fill:none;stroke:rgb(0,0,0);stroke-width:1;stroke-linecap:round"></path><path d="M-81.16735499957497,-10.340184064647842L-81.16735499957497,-6.849119823417568L-79.82439801839641,-11.618660941473324z" style="fill:rgb(153,221,255); fill-opacity: 0.4"></path><path d="M-81.16735499957497,-10.340184064647842L-81.16735499957497,-6.849119823417568" style="fill:none;stroke:rgb(0,0,0);stroke-width:1;stroke-linecap:round"></path><path d="M-82.3344485665516,-10.503642295474846L-81.16735499957497,-10.340184064647842L-80.99149158537303,-11.782119172300327zM-82.3344485665516,-7.012578054244571L-81.16735499957497,-6.849119823417568L-81.16735499957497,-10.340184064647842z" style="fill:rgb(153,221,255); fill-opacity: 0.4"></path><path d="M-77.45168216284944,-56.66578840974921L-77.45168216284944,7.862780726562258L-78.61877572982604,-56.82924664057621z" style="fill:rgb(238,238,238); fill-opacity: 0.4"></path><path d="M-82.3344485665516,-10.503642295474846L-82.3344485665516,-7.012578054244571L-81.16735499957497,-10.340184064647842z" style="fill:rgb(153,221,255); fill-opacity: 0.4"></path><path d="M-82.3344485665516,-10.503642295474846L-81.16735499957497,-10.340184064647842M-81.75090115259947,-10.421913178700105L-58.908471995225696,-6.4654516633685395" style="fill:none;stroke:rgb(0,0,0);stroke-width:1;stroke-linecap:round"></path><path d="M-80.40794480188472,-8.209325815656552L-80.40794480188472,-11.700390056886826L-58.908472405799856,-6.4654521553495305zM-81.75090178306328,-6.930848938831069L-80.40794480188472,-8.209325815656552L-58.908472405799856,-6.4654521553495305zM-80.40794480188472,-11.700390056886826L-81.75090178306328,-10.421913180061344L-58.908472405799856,-6.4654521553495305z" style="fill:rgb(255,187,187); fill-opacity: 0.4"></path><path d="M-103.4418916678284,31.330593029541244L-78.61877572982604,7.699322495735254L-77.45168216284944,7.862780726562258z" style="fill:rgb(238,238,238); fill-opacity: 0.4"></path><path d="M-81.75090178306328,-10.421913180061344L-81.75090178306328,-6.930848938831069L-58.908472405799856,-6.4654521553495305z" style="fill:rgb(255,187,187); fill-opacity: 0.4"></path><path d="M-77.45168216284944,-56.665788409749226L-78.61877572982604,-56.82924664057622M-78.61877572982604,-56.82924664057622L-103.4418916678284,-33.19797610677023M-77.45168216284944,-56.665788409749226L-102.2747981008518,-33.03451787594323" style="fill:none;stroke:rgb(0,0,0);stroke-width:1;stroke-linecap:round"></path><path d="M-15.796421184327105,14.15916539092983L-56.2448031784742,8.494134627624673L-56.2448031784742,-47.968362256868424z" style="fill:rgb(238,238,238); fill-opacity: 0.4"></path><path d="M-15.796421184327103,-42.30333149356326L-15.796421184327103,14.15916539092983M-15.796421184327103,14.15916539092983L-37.51664720316465,34.83652670159323" style="fill:none;stroke:rgb(0,0,0);stroke-width:1;stroke-linecap:round"></path><path d="M-102.2747981008518,31.494051260368245L-77.45168216284944,7.862780726562258L-77.45168216284944,-56.66578840974921z" style="fill:rgb(238,238,238); fill-opacity: 0.4"></path><path d="M-15.796421184327103,-42.30333149356326L-56.24480317847421,-47.968362256868424M-56.24480317847421,-47.968362256868424L-77.96502919731176,-27.29100094620503" style="fill:none;stroke:rgb(0,0,0);stroke-width:1;stroke-linecap:round"></path><path d="M-77.96502919731175,29.17149593828806L-56.2448031784742,8.494134627624673L-15.796421184327105,14.15916539092983z" style="fill:rgb(238,238,238); fill-opacity: 0.4"></path><path d="M-21.4967279914193,-3.4055237431848724L-61.945109985566404,-9.070554506490032M-61.945109985566404,-12.561618747720306L-61.945109985566404,-9.070554506490032M-61.945109985566404,-9.070554506490032L-63.28806696674497,-7.792077629664549" style="fill:none;stroke:rgb(0,0,0);stroke-width:1;stroke-linecap:round"></path><path d="M-78.61877572982604,-56.82924664057621L-78.61877572982604,7.699322495735254L-103.4418916678284,-33.19797610677023z" style="fill:rgb(238,238,238); fill-opacity: 0.4"></path><path d="M-21.4967279914193,-6.896587984415147L-61.945109985566404,-12.561618747720306M-61.945109985566404,-12.561618747720306L-63.28806696674497,-11.283141870894823" style="fill:none;stroke:rgb(0,0,0);stroke-width:1;stroke-linecap:round"></path><path d="M-15.796421184327105,-42.30333149356326L-15.796421184327105,14.15916539092983L-56.2448031784742,-47.968362256868424z" style="fill:rgb(238,238,238); fill-opacity: 0.4"></path><path d="M-61.94510998556639,-12.561618747720306L-61.94510998556639,-9.070554506490032L-63.288066966744964,-11.283141870894823zM-61.94510998556639,-9.070554506490032L-63.288066966744964,-7.792077629664549L-63.288066966744964,-11.283141870894823z" style="fill:rgb(153,221,255); fill-opacity: 0.4"></path><path d="M-63.28806696674497,-11.283141870894823L-63.28806696674497,-7.792077629664549M-63.28806696674497,-7.792077629664549L-22.839684972597865,-2.1270468663593896" style="fill:none;stroke:rgb(0,0,0);stroke-width:1;stroke-linecap:round"></path><path d="M-102.2747981008518,31.494051260368245L-103.4418916678284,31.330593029541244L-77.45168216284944,7.862780726562258z" style="fill:rgb(238,238,238); fill-opacity: 0.4"></path><path d="M-63.28806696674497,-11.283141870894823L-22.839684972597865,-5.618111107589664" style="fill:none;stroke:rgb(0,0,0);stroke-width:1;stroke-linecap:round"></path><path d="M-21.496727991419302,-3.4055237431848724L-61.94510998556639,-9.070554506490032L-61.94510998556639,-12.561618747720306z" style="fill:rgb(153,221,255); fill-opacity: 0.4"></path><path d="M46.4423859655972,20.537279084984668L5.994003971450097,14.872248321679512M5.994003971450097,-33.52417631099522L5.994003971450097,14.872248321679512M5.994003971450097,14.872248321679512L-12.623332128222625,32.5957004092003" style="fill:none;stroke:rgb(0,0,0);stroke-width:1;stroke-linecap:round"></path><path d="M-63.288066966744964,-7.792077629664549L-61.94510998556639,-9.070554506490032L-21.496727991419302,-3.4055237431848724zM-63.288066966744964,-11.283141870894823L-22.839684972597873,-5.618111107589664L-61.94510998556639,-12.561618747720306z" style="fill:rgb(153,221,255); fill-opacity: 0.4"></path><path d="M-102.2747981008518,-33.03451787594323L-77.45168216284944,-56.66578840974921L-78.61877572982604,-56.82924664057621z" style="fill:rgb(238,238,238); fill-opacity: 0.4"></path><path d="M-63.288066966744964,-11.283141870894823L-63.288066966744964,-7.792077629664549L-22.839684972597873,-5.618111107589664z" style="fill:rgb(153,221,255); fill-opacity: 0.4"></path><path d="M-56.2448031784742,-47.968362256868424L-56.2448031784742,8.494134627624673L-77.96502919731175,-27.29100094620504z" style="fill:rgb(238,238,238); fill-opacity: 0.4"></path><path d="M-21.496727991419302,-6.896587984415147L-21.496727991419302,-3.4055237431848724L-61.94510998556639,-12.561618747720306zM-22.839684972597873,-2.1270468663593896L-63.288066966744964,-7.792077629664549L-21.496727991419302,-3.4055237431848724z" style="fill:rgb(153,221,255); fill-opacity: 0.4"></path><path d="M-78.61877572982604,7.699322495735254L-103.4418916678284,31.330593029541244L-103.4418916678284,-33.19797610677023z" style="fill:rgb(238,238,238); fill-opacity: 0.4"></path><path d="M-22.839684972597873,-5.618111107589664L-21.496727991419302,-6.896587984415147L-61.94510998556639,-12.561618747720306zM-63.288066966744964,-7.792077629664549L-22.839684972597873,-2.1270468663593896L-22.839684972597873,-5.618111107589664z" style="fill:rgb(153,221,255); fill-opacity: 0.4"></path><path d="M-15.796421184327103,-42.30333149356326L-37.51664720316465,-21.625970182899877M-21.496728853938677,-6.896588353469991L-21.496728853938677,-3.405523834794858M-21.496728853938677,-3.405523834794858L-22.839685835117244,-2.1270469579693745M-21.496728853938677,-3.405523834794858L0.5324747927899209,-1.1314509420974483M-21.4967279914193,-6.896587984415147L-21.4967279914193,-3.4055237431848724M-21.4967279914193,-3.4055237431848724L-22.839684972597865,-2.1270468663593896M-21.496728853938677,-6.896588353469991L-22.839685835117244,-5.618111476644509M-21.496728853938677,-6.896588353469991L0.5324747927899209,-1.1314509420974483M-21.4967279914193,-6.896587984415147L-22.839684972597865,-5.618111107589664" style="fill:none;stroke:rgb(0,0,0);stroke-width:1;stroke-linecap:round"></path><path d="M-21.496728603505627,-6.89658807014139L-21.496728603505627,-3.4055238289111167L-22.839685584684197,-2.1270469520856334z" style="fill:rgb(255,187,187); fill-opacity: 0.4"></path><path d="M-22.839684972597873,-2.1270468663593896L-21.496727991419302,-3.4055237431848724L-21.496727991419302,-6.896587984415147z" style="fill:rgb(153,221,255); fill-opacity: 0.4"></path><path d="M46.4423859655972,20.537279084984668L5.994003971450096,14.872248321679512L5.994003971450096,-33.52417631099522zM-37.51664720316465,34.83652670159323L-15.796421184327105,14.15916539092983L-15.796421184327105,-42.30333149356326z" style="fill:rgb(238,238,238); fill-opacity: 0.4"></path><path d="M-21.496728603505627,-6.89658807014139L-22.839685584684197,-2.1270469520856334L-22.839685584684197,-5.618111193315908z" style="fill:rgb(255,187,187); fill-opacity: 0.4"></path><path d="M-22.839684972597873,-5.618111107589664L-22.839684972597873,-2.1270468663593896L-21.496727991419302,-6.896587984415147z" style="fill:rgb(153,221,255); fill-opacity: 0.4"></path><path d="M-22.839685835117244,-2.1270469579693745L-22.839685835117244,-5.618111476644509M-22.839685835117244,-2.1270469579693745L0.5324747927899209,-1.1314509420974483M-22.839684972597865,-5.618111107589664L-22.839684972597865,-2.1270468663593896" style="fill:none;stroke:rgb(0,0,0);stroke-width:1;stroke-linecap:round"></path><path d="M-21.496728603505627,-3.4055238289111167L-21.496728603505627,-6.89658807014139L0.5324745723320237,-1.1314507475160014z" style="fill:rgb(255,187,187); fill-opacity: 0.4"></path><path d="M-22.839685835117244,-5.618111476644509L0.5324747927899209,-1.1314509420974483" style="fill:none;stroke:rgb(0,0,0);stroke-width:1;stroke-linecap:round"></path><path d="M-22.839685584684197,-2.1270469520856334L-21.496728603505627,-3.4055238289111167L0.5324745723320237,-1.1314507475160014z" style="fill:rgb(255,187,187); fill-opacity: 0.4"></path><path d="M-56.2448031784742,8.494134627624673L-77.96502919731175,29.17149593828806L-77.96502919731175,-27.29100094620504z" style="fill:rgb(238,238,238); fill-opacity: 0.4"></path><path d="M46.4423859655972,-27.859145547690062L46.4423859655972,20.537279084984668M46.4423859655972,20.537279084984668L27.825049865924473,38.26073117250546" style="fill:none;stroke:rgb(0,0,0);stroke-width:1;stroke-linecap:round"></path><path d="M-21.496728603505627,-6.89658807014139L-22.839685584684197,-5.618111193315908L0.5324745723320237,-1.1314507475160014z" style="fill:rgb(255,187,187); fill-opacity: 0.4"></path><path d="M-102.2747981008518,-33.03451787594323L-102.2747981008518,31.494051260368245L-77.45168216284944,-56.66578840974921z" style="fill:rgb(238,238,238); fill-opacity: 0.4"></path><path d="M-22.839685584684197,-5.618111193315908L-22.839685584684197,-2.1270469520856334L0.5324745723320237,-1.1314507475160014z" style="fill:rgb(255,187,187); fill-opacity: 0.4"></path><path d="M-37.51664720316465,34.83652670159323L-77.96502919731175,29.17149593828806L-15.796421184327105,14.15916539092983z" style="fill:rgb(238,238,238); fill-opacity: 0.4"></path><path d="M-103.4418916678284,-33.19797610677023L-103.4418916678284,31.330593029541244M-103.4418916678284,31.330593029541244L-102.2747981008518,31.494051260368245M-102.2747981008518,-33.03451787594323L-102.2747981008518,31.494051260368245M46.4423859655972,-27.859145547690062L5.994003971450097,-33.52417631099522M5.994003971450097,-33.52417631099522L-12.623332128222625,-15.800724223474436M41.901909291043566,2.4579803475953046L1.4535272968964676,-3.2070504157098543M1.4535272968964676,-6.698114656940129L1.4535272968964676,-3.2070504157098543M1.4535272968964676,-3.2070504157098543L0.11057031571790077,-1.9285735388843717" style="fill:none;stroke:rgb(0,0,0);stroke-width:1;stroke-linecap:round"></path><path d="M-12.623332128222629,32.5957004092003L5.994003971450096,14.872248321679512L46.4423859655972,20.537279084984668z" style="fill:rgb(238,238,238); fill-opacity: 0.4"></path><path d="M41.901909291043566,-1.03308389363497L1.4535272968964676,-6.698114656940129M1.4535272968964676,-6.698114656940129L0.11057031571790077,-5.419637780114646" style="fill:none;stroke:rgb(0,0,0);stroke-width:1;stroke-linecap:round"></path><path d="M-37.51664720316465,-21.625970182899877L-15.796421184327105,-42.30333149356326L-56.2448031784742,-47.968362256868424z" style="fill:rgb(238,238,238); fill-opacity: 0.4"></path><path d="M1.4535272968964685,-6.698114656940128L1.4535272968964685,-3.2070504157098543L0.11057031571790032,-5.419637780114646z" style="fill:rgb(153,221,255); fill-opacity: 0.4"></path><path d="M46.4423859655972,-27.859145547690062L46.4423859655972,20.537279084984668L5.994003971450096,-33.52417631099522z" style="fill:rgb(238,238,238); fill-opacity: 0.4"></path><path d="M1.4535272968964685,-3.2070504157098543L0.11057031571790032,-1.9285735388843712L0.11057031571790032,-5.419637780114646z" style="fill:rgb(153,221,255); fill-opacity: 0.4"></path><path d="M0.11057031571790077,-5.419637780114646L0.11057031571790077,-1.9285735388843717M0.11057031571790077,-1.9285735388843717L40.558952309865,3.7364572244207874" style="fill:none;stroke:rgb(0,0,0);stroke-width:1;stroke-linecap:round"></path><path d="M-103.4418916678284,-33.19797610677023L-102.2747981008518,-33.03451787594323L-78.61877572982604,-56.82924664057621z" style="fill:rgb(238,238,238); fill-opacity: 0.4"></path><path d="M0.11057031571790077,-5.419637780114646L40.558952309865,0.24539298319051306M-77.96502919731176,-27.29100094620503L-77.96502919731176,29.17149593828806M-77.96502919731176,29.17149593828806L-37.51664720316465,34.83652670159323" style="fill:none;stroke:rgb(0,0,0);stroke-width:1;stroke-linecap:round"></path><path d="M41.901909291043566,2.457980347595305L1.4535272968964685,-3.2070504157098543L1.4535272968964685,-6.698114656940128zM0.11057031571790032,-1.9285735388843712L1.4535272968964685,-3.2070504157098543L41.901909291043566,2.457980347595305z" style="fill:rgb(153,221,255); fill-opacity: 0.4"></path><path d="M-103.4418916678284,31.330593029541244L-102.2747981008518,31.494051260368245L-102.2747981008518,-33.03451787594323zM5.994003971450096,-33.52417631099522L5.994003971450096,14.872248321679512L-12.623332128222629,-15.800724223474436z" style="fill:rgb(238,238,238); fill-opacity: 0.4"></path><path d="M116.77086846491926,28.048400071862986L68.23281363362965,21.250363654731725M68.23281363362965,-19.079993165242378L68.23281363362965,21.250363654731725M68.23281363362965,21.250363654731725L52.71836574546363,36.019908144777325" style="fill:none;stroke:rgb(0,0,0);stroke-width:1;stroke-linecap:round"></path><path d="M0.11057031571790032,-5.419637780114646L40.558952309865,0.2453929831905135L1.4535272968964685,-6.698114656940128zM0.11057031571790032,-5.419637780114646L0.11057031571790032,-1.9285735388843712L40.558952309865,0.2453929831905135zM41.901909291043566,-1.0330838936349689L41.901909291043566,2.457980347595305L1.4535272968964685,-6.698114656940128zM40.558952309865,3.7364572244207883L0.11057031571790032,-1.9285735388843712L41.901909291043566,2.457980347595305zM40.558952309865,0.2453929831905135L41.901909291043566,-1.0330838936349689L1.4535272968964685,-6.698114656940128zM0.11057031571790032,-1.9285735388843712L40.558952309865,3.7364572244207883L40.558952309865,0.2453929831905135z" style="fill:rgb(153,221,255); fill-opacity: 0.4"></path><path d="M46.4423859655972,-27.859145547690062L27.825049865924473,-10.135693460169279" style="fill:none;stroke:rgb(0,0,0);stroke-width:1;stroke-linecap:round"></path><path d="M-77.96502919731175,-27.29100094620504L-37.51664720316465,-21.625970182899877L-56.2448031784742,-47.968362256868424z" style="fill:rgb(238,238,238); fill-opacity: 0.4"></path><path d="M41.901909291043566,-1.03308389363497L41.901909291043566,2.4579803475953046M41.901909291043566,2.4579803475953046L40.558952309865,3.7364572244207874M41.90190938040921,-1.0330838149500372L41.90190938040921,2.457980426280237M41.90190938040921,2.457980426280237L40.55895239923064,3.7364573031057198M41.90190938040921,2.457980426280237L63.88951468146109,5.262368631971024" style="fill:none;stroke:rgb(0,0,0);stroke-width:1;stroke-linecap:round"></path><path d="M-103.4418916678284,-33.19797610677023L-103.4418916678284,31.330593029541244L-102.2747981008518,-33.03451787594323z" style="fill:rgb(238,238,238); fill-opacity: 0.4"></path><path d="M41.901909291043566,-1.03308389363497L40.558952309865,0.24539298319051306M41.90190938040921,-1.0330838149500372L40.55895239923064,0.24539306187544532M41.90190938040921,-1.0330838149500372L63.88951468146109,5.262368631971024" style="fill:none;stroke:rgb(0,0,0);stroke-width:1;stroke-linecap:round"></path><path d="M41.90190867895724,-1.0330839793612132L41.90190867895724,2.4579802618690607L40.558951697778674,3.736457138694544z" style="fill:rgb(255,187,187); fill-opacity: 0.4"></path><path d="M40.558952309865,3.7364572244207883L41.901909291043566,2.457980347595305L41.901909291043566,-1.0330838936349689z" style="fill:rgb(153,221,255); fill-opacity: 0.4"></path><path d="M27.825049865924473,38.26073117250546L46.4423859655972,20.537279084984668L46.4423859655972,-27.859145547690062zM-37.51664720316465,-21.625970182899877L-37.51664720316465,34.83652670159323L-15.796421184327105,-42.30333149356326zM5.994003971450096,14.872248321679512L-12.623332128222629,32.5957004092003L-12.623332128222629,-15.800724223474436z" style="fill:rgb(238,238,238); fill-opacity: 0.4"></path><path d="M41.90190867895724,-1.0330839793612132L40.558951697778674,3.736457138694544L40.558951697778674,0.24539289746426932z" style="fill:rgb(255,187,187); fill-opacity: 0.4"></path><path d="M40.558952309865,0.2453929831905135L40.558952309865,3.7364572244207883L41.901909291043566,-1.0330838936349689z" style="fill:rgb(153,221,255); fill-opacity: 0.4"></path><path d="M40.558952309865,0.24539298319051306L40.558952309865,3.7364572244207874M40.55895239923064,3.7364573031057198L40.55895239923064,0.24539306187544532M40.55895239923064,3.7364573031057198L63.88951468146109,5.262368631971024" style="fill:none;stroke:rgb(0,0,0);stroke-width:1;stroke-linecap:round"></path><path d="M41.90190867895724,2.4579802618690607L41.90190867895724,-1.0330839793612132L63.88951604711798,5.2623688873758425z" style="fill:rgb(255,187,187); fill-opacity: 0.4"></path><path d="M40.55895239923064,0.24539306187544532L63.88951468146109,5.262368631971024M-37.51664720316465,-21.625970182899877L-37.51664720316465,34.83652670159323" style="fill:none;stroke:rgb(0,0,0);stroke-width:1;stroke-linecap:round"></path><path d="M116.77086846491923,28.048400071862982L68.23281363362965,21.250363654731725L68.23281363362965,-19.079993165242378z" style="fill:rgb(238,238,238); fill-opacity: 0.4"></path><path d="M40.558951697778674,3.736457138694544L41.90190867895724,2.4579802618690607L63.88951604711798,5.2623688873758425z" style="fill:rgb(255,187,187); fill-opacity: 0.4"></path><path d="M27.825049865924473,38.26073117250546L-12.623332128222629,32.5957004092003L46.4423859655972,20.537279084984668z" style="fill:rgb(238,238,238); fill-opacity: 0.4"></path><path d="M41.90190867895724,-1.0330839793612132L40.558951697778674,0.24539289746426932L63.88951604711798,5.2623688873758425zM40.558951697778674,0.24539289746426932L40.558951697778674,3.736457138694544L63.88951604711798,5.2623688873758425z" style="fill:rgb(255,187,187); fill-opacity: 0.4"></path><path d="M-77.96502919731175,29.17149593828806L-37.51664720316465,34.83652670159323L-37.51664720316465,-21.625970182899877z" style="fill:rgb(238,238,238); fill-opacity: 0.4"></path><path d="M-103.4418916678284,-33.19797610677023L-102.2747981008518,-33.03451787594323" style="fill:none;stroke:rgb(0,0,0);stroke-width:1;stroke-linecap:round"></path><path d="M27.825049865924473,-10.135693460169277L46.4423859655972,-27.859145547690062L5.994003971450096,-33.52417631099522z" style="fill:rgb(238,238,238); fill-opacity: 0.4"></path><path d="M116.77086846491926,-12.281956748111117L68.23281363362965,-19.079993165242378M68.23281363362965,-19.079993165242378L52.71836574546363,-4.310448675196778" style="fill:none;stroke:rgb(0,0,0);stroke-width:1;stroke-linecap:round"></path><path d="M-77.96502919731175,-27.29100094620504L-77.96502919731175,29.17149593828806L-37.51664720316465,-21.625970182899877z" style="fill:rgb(238,238,238); fill-opacity: 0.4"></path><path d="M-12.623332128222625,-15.800724223474436L-12.623332128222625,32.5957004092003M-12.623332128222625,32.5957004092003L27.825049865924473,38.26073117250546M116.77086846491926,-12.281956748111117L116.77086846491926,28.048400071862986M116.77086846491926,28.048400071862986L101.25642057675323,42.81794456190858" style="fill:none;stroke:rgb(0,0,0);stroke-width:1;stroke-linecap:round"></path><path d="M52.71836574546363,36.019908144777325L68.23281363362965,21.250363654731725L116.77086846491923,28.048400071862982z" style="fill:rgb(238,238,238); fill-opacity: 0.4"></path><path d="M-77.96502919731176,-27.29100094620503L-37.51664720316465,-21.625970182899877" style="fill:none;stroke:rgb(0,0,0);stroke-width:1;stroke-linecap:round"></path><path d="M116.77086846491923,-12.281956748111119L116.77086846491923,28.048400071862982L68.23281363362965,-19.079993165242378zM68.23281363362965,-19.079993165242378L68.23281363362965,21.250363654731725L52.71836574546363,-4.3104486751967785zM-12.623332128222629,-15.800724223474436L27.825049865924473,-10.135693460169277L5.994003971450096,-33.52417631099522z" style="fill:rgb(238,238,238); fill-opacity: 0.4"></path><path d="M106.99366422874797,28.097543340268693L58.45560939745836,21.299506923137432M58.45560939745836,17.808442681907156L58.45560939745836,21.299506923137432M58.45560939745836,21.299506923137432L57.11265241627979,22.577983799962915M106.99366422874797,24.606479099038413L58.45560939745836,17.808442681907156M58.45560939745836,17.808442681907156L57.11265241627979,19.08691955873264" style="fill:none;stroke:rgb(0,0,0);stroke-width:1;stroke-linecap:round"></path><path d="M27.825049865924473,-10.135693460169277L27.825049865924473,38.26073117250546L46.4423859655972,-27.859145547690062z" style="fill:rgb(238,238,238); fill-opacity: 0.4"></path><path d="M58.45560939745836,17.808442681907152L58.45560939745836,21.29950692313743L57.11265241627979,19.08691955873264zM58.45560939745836,21.29950692313743L57.11265241627979,22.57798379996291L57.11265241627979,19.08691955873264z" style="fill:rgb(153,221,255); fill-opacity: 0.4"></path><path d="M68.23281363362965,21.250363654731725L52.71836574546363,36.019908144777325L52.71836574546363,-4.3104486751967785z" style="fill:rgb(238,238,238); fill-opacity: 0.4"></path><path d="M57.11265241627979,19.08691955873264L57.11265241627979,22.577983799962915M57.11265241627979,22.577983799962915L105.6507072475694,29.376020217094172M187.09935176883843,35.559519884288356L138.56129693754883,28.7614834671571M138.56129693754883,-3.502801100998643L138.56129693754883,28.7614834671571M138.56129693754883,28.7614834671571L126.14973896854767,40.57711873406009M27.825049865924473,-10.135693460169279L27.825049865924473,38.26073117250546M57.11265241627979,19.08691955873264L105.6507072475694,25.8849559758639" style="fill:none;stroke:rgb(0,0,0);stroke-width:1;stroke-linecap:round"></path><path d="M-12.623332128222629,32.5957004092003L27.825049865924473,38.26073117250546L27.825049865924473,-10.135693460169277z" style="fill:rgb(238,238,238); fill-opacity: 0.4"></path><path d="M116.77086846491926,-12.281956748111117L101.25642057675323,2.487587741934479" style="fill:none;stroke:rgb(0,0,0);stroke-width:1;stroke-linecap:round"></path><path d="M106.99366422874797,28.097543340268686L58.45560939745836,21.29950692313743L58.45560939745836,17.808442681907152zM57.11265241627979,22.57798379996291L58.45560939745836,21.29950692313743L106.99366422874797,28.097543340268686z" style="fill:rgb(153,221,255); fill-opacity: 0.4"></path><path d="M-12.623332128222629,-15.800724223474436L-12.623332128222629,32.5957004092003L27.825049865924473,-10.135693460169277zM101.25642057675324,42.81794456190858L116.77086846491923,28.048400071862982L116.77086846491923,-12.281956748111119z" style="fill:rgb(238,238,238); fill-opacity: 0.4"></path><path d="M-12.623332128222625,-15.800724223474436L27.825049865924473,-10.135693460169279" style="fill:none;stroke:rgb(0,0,0);stroke-width:1;stroke-linecap:round"></path><path d="M101.25642057675324,42.81794456190858L52.71836574546363,36.019908144777325L116.77086846491923,28.048400071862982z" style="fill:rgb(238,238,238); fill-opacity: 0.4"></path><path d="M57.11265241627979,19.08691955873264L105.6507072475694,25.884955975863896L58.45560939745836,17.808442681907152zM57.11265241627979,19.08691955873264L57.11265241627979,22.57798379996291L105.6507072475694,25.884955975863896z" style="fill:rgb(153,221,255); fill-opacity: 0.4"></path><path d="M52.71836574546363,-4.310448675196778L52.71836574546363,36.019908144777325M52.71836574546363,36.019908144777325L101.25642057675323,42.81794456190858" style="fill:none;stroke:rgb(0,0,0);stroke-width:1;stroke-linecap:round"></path><path d="M106.99366422874797,24.606479099038413L106.99366422874797,28.097543340268686L58.45560939745836,17.808442681907152z" style="fill:rgb(153,221,255); fill-opacity: 0.4"></path><path d="M101.25642057675324,2.48758774193448L116.77086846491923,-12.281956748111119L68.23281363362965,-19.079993165242378zM187.09935176883843,35.559519884288356L138.56129693754883,28.7614834671571L138.56129693754883,-3.5028011009986395z" style="fill:rgb(238,238,238); fill-opacity: 0.4"></path><path d="M105.6507072475694,29.376020217094172L57.11265241627979,22.57798379996291L106.99366422874797,28.097543340268686zM105.6507072475694,25.884955975863896L106.99366422874797,24.606479099038413L58.45560939745836,17.808442681907152zM57.11265241627979,22.57798379996291L105.6507072475694,29.376020217094172L105.6507072475694,25.884955975863896z" style="fill:rgb(153,221,255); fill-opacity: 0.4"></path><path d="M187.09935176883843,3.295235316132617L138.56129693754883,-3.502801100998643M138.56129693754883,-3.502801100998643L126.14973896854767,8.312834165904354M106.99366422874797,24.606479099038413L106.99366422874797,28.097543340268693M106.99366422874797,28.097543340268693L105.6507072475694,29.376020217094172M106.99366626420192,24.60647928956981L106.99366626420192,28.0975440856898M106.99366626420192,28.0975440856898L105.65070928302333,29.37602096251528M106.99366626420192,28.0975440856898L130.20235073071728,27.91576334323545M106.99366422874797,24.606479099038413L105.6507072475694,25.8849559758639M106.99366626420192,24.60647928956981L105.65070928302333,25.884956166395288M106.99366626420192,24.60647928956981L130.20235073071728,27.91576334323545" style="fill:none;stroke:rgb(0,0,0);stroke-width:1;stroke-linecap:round"></path><path d="M105.6507072475694,29.376020217094172L106.99366422874797,28.097543340268686L106.99366422874797,24.606479099038413z" style="fill:rgb(153,221,255); fill-opacity: 0.4"></path><path d="M106.99366527508784,24.60647924558438L106.99366527508784,28.09754348681466L105.65070829390928,29.376020363640144z" style="fill:rgb(255,187,187); fill-opacity: 0.4"></path><path d="M52.71836574546363,-4.3104486751967785L101.25642057675324,2.48758774193448L68.23281363362965,-19.079993165242378zM126.14973896854764,40.57711873406009L138.56129693754883,28.7614834671571L187.09935176883843,35.559519884288356z" style="fill:rgb(238,238,238); fill-opacity: 0.4"></path><path d="M105.6507072475694,25.884955975863896L105.6507072475694,29.376020217094172L106.99366422874797,24.606479099038413z" style="fill:rgb(153,221,255); fill-opacity: 0.4"></path><path d="M106.99366527508784,24.60647924558438L105.65070829390928,29.376020363640144L105.65070829390928,25.88495612240987z" style="fill:rgb(255,187,187); fill-opacity: 0.4"></path><path d="M105.6507072475694,25.8849559758639L105.6507072475694,29.376020217094172M105.65070928302333,29.37602096251528L105.65070928302333,25.884956166395288M105.65070928302333,29.37602096251528L130.20235073071728,27.91576334323545M187.09935176883843,3.295235316132617L187.09935176883843,35.559519884288356M187.09935176883843,35.559519884288356L174.68779379983727,47.37515515119135" style="fill:none;stroke:rgb(0,0,0);stroke-width:1;stroke-linecap:round"></path><path d="M106.99366527508784,28.09754348681466L106.99366527508784,24.60647924558438L130.20234988056632,27.915763270918802zM105.65070829390928,29.376020363640144L106.99366527508784,28.09754348681466L130.20234988056632,27.915763270918802z" style="fill:rgb(255,187,187); fill-opacity: 0.4"></path><path d="M105.65070928302333,25.884956166395288L130.20235073071728,27.91576334323545" style="fill:none;stroke:rgb(0,0,0);stroke-width:1;stroke-linecap:round"></path><path d="M138.56129693754883,-3.5028011009986395L138.56129693754883,28.7614834671571L126.14973896854764,8.312834165904356z" style="fill:rgb(238,238,238); fill-opacity: 0.4"></path><path d="M106.99366527508784,24.60647924558438L105.65070829390928,25.88495612240987L130.20234988056632,27.915763270918802zM105.65070829390928,25.88495612240987L105.65070829390928,29.376020363640144L130.20234988056632,27.915763270918802z" style="fill:rgb(255,187,187); fill-opacity: 0.4"></path><path d="M187.09935176883843,3.2952353161326173L187.09935176883843,35.559519884288356L138.56129693754883,-3.5028011009986395zM101.25642057675324,2.48758774193448L101.25642057675324,42.81794456190858L116.77086846491923,-12.281956748111119z" style="fill:rgb(238,238,238); fill-opacity: 0.4"></path><path d="M52.71836574546363,-4.310448675196778L101.25642057675323,2.487587741934479" style="fill:none;stroke:rgb(0,0,0);stroke-width:1;stroke-linecap:round"></path><path d="M52.71836574546363,-4.3104486751967785L52.71836574546363,36.019908144777325L101.25642057675324,2.48758774193448zM52.71836574546363,36.019908144777325L101.25642057675324,42.81794456190858L101.25642057675324,2.48758774193448z" style="fill:rgb(238,238,238); fill-opacity: 0.4"></path><path d="M101.25642057675323,2.487587741934479L101.25642057675323,42.81794456190858" style="fill:none;stroke:rgb(0,0,0);stroke-width:1;stroke-linecap:round"></path><path d="M138.56129693754883,28.7614834671571L126.14973896854764,40.57711873406009L126.14973896854764,8.312834165904356z" style="fill:rgb(238,238,238); fill-opacity: 0.4"></path><path d="M187.09935176883843,3.295235316132617L174.68779379983727,15.110870583035613M126.14973896854767,8.312834165904354L126.14973896854767,40.57711873406009M126.14973896854767,40.57711873406009L174.68779379983727,47.37515515119135" style="fill:none;stroke:rgb(0,0,0);stroke-width:1;stroke-linecap:round"></path><path d="M174.68779379983727,47.37515515119135L187.09935176883843,35.559519884288356L187.09935176883843,3.2952353161326173zM174.68779379983727,47.37515515119135L126.14973896854764,40.57711873406009L187.09935176883843,35.559519884288356z" style="fill:rgb(238,238,238); fill-opacity: 0.4"></path><path d="M217.921404158442,57.05816320974414L209.831727982218,55.92515708826029M209.831727982218,-0.5373397962328063L209.831727982218,55.92515708826029M209.831727982218,55.92515708826029L206.7288384899677,58.87906590498604" style="fill:none;stroke:rgb(0,0,0);stroke-width:1;stroke-linecap:round"></path><path d="M174.68779379983727,15.11087058303561L187.09935176883843,3.2952353161326173L138.56129693754883,-3.5028011009986395z" style="fill:rgb(238,238,238); fill-opacity: 0.4"></path><path d="M217.921404158442,0.5956663252510391L217.921404158442,57.05816320974414M217.921404158442,57.05816320974414L214.81851466619167,60.01207202646989" style="fill:none;stroke:rgb(0,0,0);stroke-width:1;stroke-linecap:round"></path><path d="M206.72883848996773,58.87906590498604L209.831727982218,55.92515708826029L217.921404158442,57.05816320974414zM126.14973896854764,8.312834165904356L174.68779379983727,15.11087058303561L138.56129693754883,-3.5028011009986395z" style="fill:rgb(238,238,238); fill-opacity: 0.4"></path><path d="M186.10550547465175,26.065156670220222L199.3325659003867,27.91768328625958" style="fill:none;stroke:rgb(0,0,0);stroke-width:1;stroke-linecap:round"></path><path d="M214.81851466619173,60.01207202646989L206.72883848996773,58.87906590498604L217.921404158442,57.05816320974414z" style="fill:rgb(238,238,238); fill-opacity: 0.4"></path><path d="M206.7288384899677,2.4165690204929393L206.7288384899677,58.87906590498604M206.7288384899677,58.87906590498604L214.81851466619167,60.01207202646989" style="fill:none;stroke:rgb(0,0,0);stroke-width:1;stroke-linecap:round"></path><path d="M217.921404158442,57.05816320974414L209.831727982218,55.92515708826029L209.831727982218,-0.5373397962328107z" style="fill:rgb(238,238,238); fill-opacity: 0.4"></path><path d="M126.14973896854767,8.312834165904354L174.68779379983727,15.110870583035613M214.81851466619167,3.549575141976785L214.81851466619167,60.01207202646989" style="fill:none;stroke:rgb(0,0,0);stroke-width:1;stroke-linecap:round"></path><path d="M126.14973896854764,8.312834165904356L126.14973896854764,40.57711873406009L174.68779379983727,15.11087058303561z" style="fill:rgb(238,238,238); fill-opacity: 0.4"></path><path d="M249.35295165196914,61.46033394465472L241.26327547574516,60.327327823170876M241.26327547574516,3.86483093867777L241.26327547574516,60.327327823170876M241.26327547574516,60.327327823170876L238.16038598349482,63.28123663989662" style="fill:none;stroke:rgb(0,0,0);stroke-width:1;stroke-linecap:round"></path><path d="M174.68779379983727,15.11087058303561L174.68779379983727,47.37515515119135L187.09935176883843,3.2952353161326173zM126.14973896854764,40.57711873406009L174.68779379983727,47.37515515119135L174.68779379983727,15.11087058303561zM209.831727982218,55.92515708826029L206.72883848996773,58.87906590498604L206.72883848996773,2.416569020492935zM214.81851466619173,60.01207202646989L217.921404158442,57.05816320974414L217.921404158442,0.5956663252510399z" style="fill:rgb(238,238,238); fill-opacity: 0.4"></path><path d="M198.26820921713244,29.829934955099215L199.3325659003867,30.826903487284813L207.1131896802308,29.007404825106264zM199.99037448109294,24.937849810225277L198.67475731968045,26.190299548521825L207.1131896802308,29.007404825106264z" style="fill:rgb(0,0,0)"></path><path d="M174.68779379983727,15.110870583035613L174.68779379983727,47.37515515119135M249.35295165196914,4.997837060161616L249.35295165196914,61.46033394465472M249.35295165196914,61.46033394465472L246.25006215971882,64.41424276138046" style="fill:none;stroke:rgb(0,0,0);stroke-width:1;stroke-linecap:round"></path><path d="M198.67475731968045,26.190299548521825L198.26820921713244,29.829934955099215L207.1131896802308,29.007404825106264z" style="fill:rgb(0,0,0)"></path><path d="M238.16038598349485,63.28123663989662L241.26327547574516,60.327327823170876L249.35295165196914,61.46033394465472zM217.921404158442,0.5956663252510399L217.921404158442,57.05816320974414L209.831727982218,-0.5373397962328107zM206.72883848996773,58.87906590498604L214.81851466619173,60.01207202646989L214.81851466619173,3.5495751419767854zM209.831727982218,-0.5373397962328107L209.831727982218,55.92515708826029L206.72883848996773,2.416569020492935z" style="fill:rgb(238,238,238); fill-opacity: 0.4"></path><path d="M217.53705296817887,30.467327405130806L230.76411339391382,32.319854021170165" style="fill:none;stroke:rgb(0,0,0);stroke-width:1;stroke-linecap:round"></path><path d="M246.25006215971885,64.41424276138046L238.16038598349485,63.28123663989662L249.35295165196914,61.46033394465472z" style="fill:rgb(238,238,238); fill-opacity: 0.4"></path><path d="M238.16038598349482,6.818739755403516L238.16038598349482,63.28123663989662M238.16038598349482,63.28123663989662L246.25006215971882,64.41424276138046" style="fill:none;stroke:rgb(0,0,0);stroke-width:1;stroke-linecap:round"></path><path d="M249.35295165196914,61.46033394465472L241.26327547574516,60.327327823170876L241.26327547574516,3.8648309386777706z" style="fill:rgb(238,238,238); fill-opacity: 0.4"></path><path d="M246.25006215971882,7.951745876887361L246.25006215971882,64.41424276138046M217.921404158442,0.5956663252510391L209.831727982218,-0.5373397962328063M209.831727982218,-0.5373397962328063L206.7288384899677,2.4165690204929393" style="fill:none;stroke:rgb(0,0,0);stroke-width:1;stroke-linecap:round"></path><path d="M214.81851466619173,3.5495751419767854L214.81851466619173,60.01207202646989L217.921404158442,0.5956663252510399zM206.72883848996773,2.416569020492935L206.72883848996773,58.87906590498604L214.81851466619173,3.5495751419767854zM241.26327547574516,60.327327823170876L238.16038598349485,63.28123663989662L238.16038598349485,6.818739755403517zM246.25006215971885,64.41424276138046L249.35295165196914,61.46033394465472L249.35295165196914,4.997837060161621z" style="fill:rgb(238,238,238); fill-opacity: 0.4"></path><path d="M229.69975671065959,34.232105690009796L230.76411339391382,35.229074222195386L238.5447371737579,33.40957556001684zM231.4219219746201,29.34002054513585L230.1063048132076,30.5924702834324L238.5447371737579,33.40957556001684z" style="fill:rgb(0,0,0)"></path><path d="M217.921404158442,0.5956663252510391L214.81851466619167,3.549575141976785" style="fill:none;stroke:rgb(0,0,0);stroke-width:1;stroke-linecap:round"></path><path d="M230.1063048132076,30.5924702834324L229.69975671065959,34.232105690009796L238.5447371737579,33.40957556001684z" style="fill:rgb(0,0,0)"></path><path d="M214.81851466619173,3.5495751419767854L217.921404158442,0.5956663252510399L209.831727982218,-0.5373397962328107zM249.35295165196914,4.997837060161621L249.35295165196914,61.46033394465472L241.26327547574516,3.8648309386777706zM238.16038598349485,63.28123663989662L246.25006215971885,64.41424276138046L246.25006215971885,7.951745876887368zM206.72883848996773,2.416569020492935L214.81851466619173,3.5495751419767854L209.831727982218,-0.5373397962328107zM241.26327547574516,3.8648309386777706L241.26327547574516,60.327327823170876L238.16038598349485,6.818739755403517z" style="fill:rgb(238,238,238); fill-opacity: 0.4"></path><path d="M248.968600461706,34.86949814004138L262.19566088744097,36.72202475608074M206.7288384899677,2.4165690204929393L214.81851466619167,3.549575141976785M280.7844991454963,41.66429180833821L272.6948229692723,40.53128568685437M272.6948229692723,32.46521454481543L272.6948229692723,40.53128568685437M272.6948229692723,40.53128568685437L269.59193347702194,43.48519450358011M249.35295165196914,4.997837060161616L241.26327547574516,3.86483093867777M241.26327547574516,3.86483093867777L238.16038598349482,6.818739755403516" style="fill:none;stroke:rgb(0,0,0);stroke-width:1;stroke-linecap:round"></path><path d="M246.25006215971885,7.951745876887368L246.25006215971885,64.41424276138046L249.35295165196914,4.997837060161621zM280.7844991454963,41.66429180833821L272.6948229692723,40.53128568685437L272.6948229692723,32.46521454481544zM238.16038598349485,6.818739755403517L238.16038598349485,63.28123663989662L246.25006215971885,7.951745876887368z" style="fill:rgb(238,238,238); fill-opacity: 0.4"></path><path d="M280.7844991454963,33.598220666299284L280.7844991454963,41.66429180833821M280.7844991454963,41.66429180833821L277.6816096532459,44.61820062506396M280.7844991454963,33.598220666299284L272.6948229692723,32.46521454481543M272.6948229692723,32.46521454481543L269.59193347702194,35.41912336154118" style="fill:none;stroke:rgb(0,0,0);stroke-width:1;stroke-linecap:round"></path><path d="M261.1313042041867,38.63427642492037L262.19566088744097,39.63124495710597L269.97628466728503,37.811746294927424z" style="fill:rgb(0,0,0)"></path><path d="M269.591933477022,43.48519450358011L272.6948229692723,40.53128568685437L280.7844991454963,41.66429180833821z" style="fill:rgb(238,238,238); fill-opacity: 0.4"></path><path d="M262.8534694681472,33.742191280046434L261.53785230673475,34.99464101834298L269.97628466728503,37.811746294927424z" style="fill:rgb(0,0,0)"></path><path d="M280.7844991454963,33.598220666299284L280.7844991454963,41.66429180833821L272.6948229692723,32.46521454481544z" style="fill:rgb(238,238,238); fill-opacity: 0.4"></path><path d="M249.35295165196914,4.997837060161616L246.25006215971882,7.951745876887361" style="fill:none;stroke:rgb(0,0,0);stroke-width:1;stroke-linecap:round"></path><path d="M272.6948229692723,32.46521454481544L272.6948229692723,40.53128568685437L269.591933477022,35.41912336154118z" style="fill:rgb(238,238,238); fill-opacity: 0.4"></path><path d="M261.53785230673475,34.99464101834298L261.1313042041867,38.63427642492037L269.97628466728503,37.811746294927424z" style="fill:rgb(0,0,0)"></path><path d="M246.25006215971885,7.951745876887368L249.35295165196914,4.997837060161621L241.26327547574516,3.8648309386777706z" style="fill:rgb(238,238,238); fill-opacity: 0.4"></path><path d="M280.7844991454963,33.598220666299284L277.6816096532459,36.55212948302503" style="fill:none;stroke:rgb(0,0,0);stroke-width:1;stroke-linecap:round"></path><path d="M272.6948229692723,40.53128568685437L269.591933477022,43.48519450358011L269.591933477022,35.41912336154118zM277.68160965324597,44.618200625063956L280.7844991454963,41.66429180833821L280.7844991454963,33.598220666299284zM277.68160965324597,44.618200625063956L269.591933477022,43.48519450358011L280.7844991454963,41.66429180833821zM238.16038598349485,6.818739755403517L246.25006215971885,7.951745876887368L241.26327547574516,3.8648309386777706z" style="fill:rgb(238,238,238); fill-opacity: 0.4"></path><path d="M269.59193347702194,35.41912336154118L269.59193347702194,43.48519450358011M269.59193347702194,43.48519450358011L277.6816096532459,44.61820062506396" style="fill:none;stroke:rgb(0,0,0);stroke-width:1;stroke-linecap:round"></path><path d="M277.68160965324597,36.55212948302503L280.7844991454963,33.598220666299284L272.6948229692723,32.46521454481544z" style="fill:rgb(238,238,238); fill-opacity: 0.4"></path><path d="M238.16038598349482,6.818739755403516L246.25006215971882,7.951745876887361" style="fill:none;stroke:rgb(0,0,0);stroke-width:1;stroke-linecap:round"></path><path d="M269.591933477022,35.41912336154118L277.68160965324597,36.55212948302503L272.6948229692723,32.46521454481544zM277.68160965324597,36.55212948302503L277.68160965324597,44.618200625063956L280.7844991454963,33.598220666299284z" style="fill:rgb(238,238,238); fill-opacity: 0.4"></path><path d="M277.6816096532459,36.55212948302503L277.6816096532459,44.61820062506396" style="fill:none;stroke:rgb(0,0,0);stroke-width:1;stroke-linecap:round"></path><path d="M269.591933477022,43.48519450358011L277.68160965324597,44.618200625063956L277.68160965324597,36.55212948302503zM269.591933477022,35.41912336154118L269.591933477022,43.48519450358011L277.68160965324597,36.55212948302503z" style="fill:rgb(238,238,238); fill-opacity: 0.4"></path><path d="M269.59193347702194,35.41912336154118L277.6816096532459,36.55212948302503" style="fill:none;stroke:rgb(0,0,0);stroke-width:1;stroke-linecap:round"></path></svg>